<?xml version="1.0" encoding="UTF-8" standalone="no"?>
<!DOCTYPE svg PUBLIC "-//W3C//DTD SVG 1.1//EN" "http://www.w3.org/Graphics/SVG/1.1/DTD/svg11.dtd">
<svg width="100%" height="100%" viewBox="0 0 808 489" version="1.1" xmlns="http://www.w3.org/2000/svg" xmlns:xlink="http://www.w3.org/1999/xlink" xml:space="preserve" xmlns:serif="http://www.serif.com/" style="fill-rule:evenodd;clip-rule:evenodd;stroke-linejoin:round;stroke-miterlimit:2;">
    <g transform="matrix(1,0,0,1,-18.4465,-30.1415)">
        <g>
            <g>
                <g transform="matrix(1,0,0,1,92.3286,137.45)">
                    <path d="M0,-38.184C-0.67,-37.296 -1.093,-36.032 -1.739,-34.924C-3.512,-31.883 -5.312,-27.758 -5.65,-23.842C-5.963,-20.222 -5.309,-17.432 -4.782,-14.716C-4.484,-13.188 -4.362,-11.383 -3.912,-10.152C-3.714,-9.612 -3.107,-9.018 -2.826,-8.414C-2.493,-7.701 -2.461,-7.005 -2.173,-6.241C-1.252,-3.796 -0.056,-2.283 1.304,-0.809C2.931,0.957 4.23,2.123 6.083,3.538C8.4,5.305 10.991,7.136 13.689,8.101C17.578,9.491 21.932,9.544 26.945,9.405C28.8,9.353 31.007,9.618 32.812,9.405C33.285,9.349 34.034,8.779 34.768,8.536C37.695,7.566 38.993,6.73 41.287,5.276C42.835,4.295 44.504,3.505 45.416,2.668C45.956,2.172 46.408,1.33 46.937,0.713C48.658,-1.297 50.204,-3.603 51.5,-5.807C53.484,-9.18 54.414,-13.214 54.76,-17.323C55.45,-25.534 52.651,-32.912 49.327,-37.532C47.591,-39.943 45.952,-41.321 43.677,-42.965C42.866,-43.551 42.058,-44.489 41.287,-44.92C40.951,-45.109 40.314,-45.148 39.766,-45.355C38.505,-45.829 37.448,-46.355 36.289,-46.659C32.146,-47.744 26.891,-48.765 22.165,-48.397C18.11,-48.081 14.374,-47.495 10.648,-46.441C6.839,-44.034 2.768,-41.856 0,-38.184M77.359,-38.184C77.414,-35.689 78.786,-34.794 79.097,-32.969C79.341,-31.541 79.033,-29.936 79.097,-28.406C79.232,-25.195 79.96,-21.823 79.966,-19.062C79.974,-15.672 79.488,-12.175 79.097,-8.849C78.912,-7.28 78.438,-5.618 78.01,-4.068C77.269,-1.373 76.775,0.439 75.838,2.668C74.322,6.272 72.225,9.709 69.97,12.881C69.279,13.854 68.499,14.497 67.797,15.489C67.197,16.338 66.811,17.028 65.841,17.879C63.564,19.88 60.736,22.08 58.019,23.964C54.969,26.078 50.939,28.261 46.937,29.397C44.095,30.202 40.935,31.013 38.028,31.352C37.1,31.461 36.113,31.258 35.202,31.352C34.222,31.453 33.338,31.904 32.378,32.004C27.522,32.509 21.357,32.306 16.298,32.004C15.001,31.927 13.707,31.504 12.386,31.352C6.913,30.726 1.533,29.586 -3.043,27.441C-4.969,26.538 -7.289,25.438 -9.344,24.181C-10.824,23.277 -11.835,22.591 -13.038,21.574C-15.804,19.235 -18.506,16.646 -20.644,13.316C-21.358,12.203 -21.974,11.049 -22.817,9.839C-23.073,9.472 -24.065,8.513 -23.686,7.449C-26.239,5.171 -26.793,1.992 -28.032,-1.678C-29.196,-5.126 -30.204,-8.038 -30.422,-12.76C-30.694,-18.644 -30.788,-27.511 -29.336,-33.404C-29.247,-33.765 -28.957,-33.868 -28.901,-34.273C-28.75,-35.369 -28.57,-36.043 -28.25,-37.098C-26.834,-41.751 -24.211,-45.434 -21.513,-49.267C-21.303,-49.565 -21.296,-49.895 -21.079,-50.136C-20.068,-51.257 -18.811,-52.895 -17.603,-54.265C-15.558,-56.579 -13.284,-58.64 -10.648,-60.566C-10.224,-60.876 -9.749,-61.115 -9.344,-61.435C-5.194,-64.717 1.145,-67.181 7.388,-68.606C15.84,-70.535 31.446,-70.693 40.417,-68.824C44.079,-68.06 47.863,-66.624 51.065,-65.129C56.094,-62.783 61.051,-59.72 64.973,-56.003C65.94,-55.085 66.798,-54.021 67.797,-52.96C70.366,-50.237 72.1,-47.055 74.316,-43.617C75.242,-42.182 75.882,-39.807 77.359,-38.184" style="fill:rgb(35,31,32);"/>
                </g>
                <g transform="matrix(1,0,0,1,452.613,142.1)">
                    <path d="M0,-46.311C-1.195,-43.191 -0.014,-39.854 -0.218,-35.228C-0.342,-32.419 -0.591,-29.493 -0.436,-26.971C-0.212,-23.395 0.214,-19.455 1.521,-18.497C3.595,-16.975 7.811,-17.833 9.779,-18.713C12.842,-20.084 14.844,-21.623 16.732,-23.929C17.042,-24.308 17.271,-24.796 17.601,-25.232C17.91,-25.639 18.636,-25.921 18.904,-26.319C19.199,-26.752 19.474,-27.53 19.774,-28.058C21.668,-31.385 23.571,-36.837 22.383,-40.878C21.571,-43.631 20.383,-45.718 18.688,-46.963C18.054,-47.429 18.144,-47.646 17.384,-48.049C14.766,-49.435 8.366,-50.28 4.347,-49.57C2.313,-49.212 0.661,-48.038 0,-46.311M9.344,6.276C5.745,4.939 3.819,4.501 1.956,6.276C0.768,7.406 0.541,9.318 0.435,11.709C0.341,13.797 0.26,16.123 0.435,18.01C0.631,20.138 1.618,22.093 1.304,23.66C0.896,25.691 -0.918,26.709 -3.477,26.919C-4.672,27.018 -6.428,27.218 -7.389,26.268C-9.487,26.93 -12.517,26.919 -15.43,26.919C-17.979,26.919 -21.654,27.146 -23.033,25.833C-24.712,24.238 -24.339,17.709 -24.339,14.099C-24.339,9.219 -24.526,5.461 -23.903,2.365C-24.786,0.147 -24.181,-3.069 -24.339,-5.893C-24.414,-7.283 -24.754,-8.656 -24.771,-9.804C-24.811,-12.123 -24.34,-14.533 -24.339,-16.975C-24.337,-19.311 -24.666,-21.731 -24.771,-24.146C-24.97,-28.635 -24.956,-33.053 -24.771,-37.619C-24.57,-42.693 -24.602,-47.88 -24.771,-52.83C-24.977,-58.762 -26.902,-69.66 -22.601,-72.169C-20.268,-73.529 -14.156,-72.821 -10.43,-72.821C-5.271,-72.821 -0.591,-73.02 2.824,-73.256C5.003,-73.406 7.158,-73.215 9.344,-73.039C13.934,-72.667 17.899,-72.844 21.947,-71.952C24.132,-71.471 26.496,-70.348 28.684,-69.345C32.389,-67.645 34.742,-66.445 37.375,-64.129C44.111,-58.206 48.263,-47.724 46.72,-35.011C46.328,-31.794 45.625,-28.046 44.328,-25.45C43.787,-24.365 42.921,-21.915 42.157,-20.669C42.056,-20.507 41.582,-20.579 41.504,-20.452C41.25,-20.039 41.188,-19.381 40.852,-18.931C40.642,-18.647 40.19,-18.563 39.983,-18.279C39.059,-17.01 38.035,-15.213 36.507,-14.15C35.373,-11.256 31.698,-10.547 32.16,-6.545C32.538,-3.269 38.445,-0.768 41.287,0.409C43.148,1.18 46.286,2.267 47.154,4.103C48.084,6.068 47.372,10.867 47.372,13.882C47.372,16.619 47.809,21.522 46.72,23.66C46.044,24.987 42.679,26.82 40.634,26.919C35.874,27.151 32.489,24.846 29.77,22.791C26.904,20.625 23.631,18.201 21.077,15.62C19.197,13.719 17.476,11.981 15.428,10.622C13.18,9.128 11.036,7.849 9.344,6.276" style="fill:rgb(35,31,32);"/>
                </g>
                <g transform="matrix(1,0,0,1,386.335,168.976)">
                    <path d="M0,-97.307C1.169,-98.057 2.451,-99.061 4.347,-99.045C7.201,-99.021 11.754,-98.889 16.297,-99.045C20.685,-99.197 25.679,-99.388 26.512,-97.09C27.801,-93.535 22.8,-89.443 20.645,-86.66C19.343,-84.98 18.27,-83.275 17.167,-81.661C13.859,-76.816 10.504,-72.603 6.954,-67.754C5.831,-66.219 4.262,-64.085 3.042,-62.322C1.863,-60.616 0.55,-58.961 -0.217,-57.324C-1.577,-54.42 -0.575,-50.393 0.435,-47.763C3.252,-43.436 5.734,-38.73 8.475,-34.29C11.167,-29.93 13.012,-24.594 15.863,-20.165C17.723,-17.279 19.001,-13.857 21.732,-11.69C21.598,-9.397 22.964,-8.351 23.686,-6.91C24.383,-5.521 25.534,-3.78 25.208,-2.129C24.379,2.067 18.25,0.36 13.908,0.695C12.081,0.837 7.49,0.387 4.564,0.261C3.974,0.235 1.826,0.691 0.435,0.261C-0.207,0.063 -1.55,-0.766 -2.172,-1.477C-2.952,-2.367 -3.213,-3.918 -3.911,-5.606C-4.463,-6.943 -5.555,-8.193 -6.083,-9.301C-6.44,-10.045 -6.422,-10.944 -6.736,-11.69C-7.021,-12.368 -7.53,-12.815 -7.822,-13.429C-9.671,-17.312 -12.025,-21.162 -14.342,-24.511C-15.188,-25.736 -16.042,-26.805 -16.731,-27.988C-17.855,-29.916 -18.396,-31.364 -19.774,-32.986C-20.561,-33.914 -22.116,-35.298 -23.902,-34.942C-26.683,-34.388 -25.961,-30.672 -26.292,-26.902C-26.375,-25.958 -26.832,-24.782 -26.945,-23.642C-27.201,-21.054 -26.636,-17.762 -26.51,-14.95C-26.5,-14.717 -26.851,-14.808 -26.728,-14.081C-26.22,-11.081 -25.756,-3.951 -26.945,-1.912C-27.5,-0.959 -28.899,-0.626 -29.335,0.478C-32.789,1.473 -36.13,1.365 -40.417,1.347C-44.837,1.33 -49.442,2.081 -50.849,-0.608C-51.611,-2.067 -51.28,-6.736 -51.283,-9.735C-51.285,-13.023 -51.355,-16.449 -51.499,-19.514C-51.985,-29.788 -51.564,-37.841 -51.499,-46.458C-51.459,-51.727 -52.248,-56.637 -52.369,-61.67C-52.498,-67.043 -52.384,-72.425 -52.369,-77.75C-52.361,-80.344 -52.79,-83.773 -52.803,-86.007C-52.813,-87.493 -52.571,-88.585 -52.587,-89.702C-52.631,-92.859 -53.261,-95.593 -51.283,-97.307C-49.101,-99.197 -43.279,-98.533 -39.766,-98.611C-36.247,-98.689 -30.397,-99.308 -28.466,-96.872C-28.317,-96.685 -28.398,-96.393 -28.249,-96.221C-26.842,-94.598 -27.589,-88.965 -27.597,-85.79C-27.604,-82.379 -27.067,-78.855 -26.945,-75.577C-26.841,-72.797 -27.704,-66.771 -25.207,-66.233C-23.667,-65.902 -21.799,-67.517 -20.643,-68.841C-18.657,-71.114 -17.81,-72.841 -16.08,-74.925C-15.784,-75.282 -15.437,-75.483 -15.21,-75.794C-13.052,-78.756 -10.946,-82.081 -8.691,-85.138C-5.89,-88.937 -2.838,-93.668 0,-97.307" style="fill:rgb(35,31,32);"/>
                </g>
                <g transform="matrix(1,0,0,1,268.994,145.868)">
                    <path d="M0,-52.252C-5.062,-52.923 -9.85,-50.885 -12.386,-53.338C-14.256,-55.147 -13.86,-58.517 -13.907,-61.814C-13.955,-65.132 -14.17,-71.08 -12.821,-73.113C-10.655,-76.375 -6.006,-75.661 -1.738,-75.503C0.337,-75.426 2.573,-75.447 4.781,-75.503C13.745,-75.73 21.432,-75.286 32.377,-75.286C36.35,-75.286 42.448,-75.898 44.547,-73.547C46.896,-70.916 46.265,-61.978 45.851,-57.033C45.781,-56.204 46.321,-55.924 45.851,-55.077C45.734,-54.868 45.005,-53.263 44.547,-52.904C42.16,-51.033 37.877,-52.65 34.986,-51.817C33.391,-51.358 30.888,-49.71 30.205,-48.123C29.499,-46.481 29.26,-43.118 29.118,-40.953C28.924,-37.978 28.972,-34.681 29.118,-31.608C29.392,-25.87 29.118,-19.868 29.118,-14.007C29.118,-10.958 29.511,-8.126 29.553,-5.315C29.586,-3.1 29.032,0.235 29.118,2.508C29.175,4.008 29.64,6.052 29.771,8.158C29.893,10.133 29.66,12.46 29.771,14.677C29.891,17.116 30.186,19.249 29.336,20.761C27.81,23.475 22.991,23.586 18.036,23.586C13.203,23.586 8.289,24.123 6.301,22.282C4.154,20.292 4.781,14.959 4.781,9.679C4.781,5.202 4.157,0.487 4.129,-3.142C4.118,-4.494 4.484,-5.927 4.563,-7.271C4.849,-12.131 4.914,-17.474 4.563,-22.481C4.424,-24.472 3.908,-26.563 3.912,-28.566C3.913,-29.806 4.338,-31.019 4.347,-32.26C4.362,-34.884 3.959,-37.494 3.912,-40.084C3.879,-41.833 4.288,-43.768 4.129,-45.516C3.869,-48.366 2.32,-50.516 0,-52.252" style="fill:rgb(35,31,32);"/>
                </g>
                <g transform="matrix(1,0,0,1,581.473,167.538)">
                    <path d="M0,-95.869C1.673,-92.241 0.911,-88.286 0.218,-83.483C-0.152,-80.93 -0.592,-77.935 -1.738,-76.964C-3.04,-75.863 -6.44,-75.749 -9.127,-75.877C-12.074,-76.018 -15.158,-75.949 -17.385,-76.095C-21.781,-76.384 -31.873,-77.832 -34.333,-74.356C-35.386,-72.869 -35.371,-70.811 -35.203,-68.706C-34.873,-64.575 -35.069,-61.679 -31.944,-60.449C-27.938,-58.873 -22.523,-60.596 -16.08,-60.232C-13.679,-60.096 -10.589,-59.955 -7.605,-60.015C-1.135,-60.142 0.706,-59.481 1.304,-54.147C1.756,-50.109 2.423,-42.568 0,-39.806C-2.323,-37.157 -12.276,-37.943 -16.732,-38.067C-19.526,-38.145 -22.521,-38.562 -24.989,-38.719C-29.339,-38.995 -33.537,-39.1 -34.551,-36.329C-34.657,-36.038 -34.468,-35.467 -34.551,-35.025C-35.237,-31.408 -35.936,-22.539 -33.03,-20.9C-31.711,-20.157 -29.053,-20.209 -27.162,-20.031C-24.815,-19.81 -22.628,-19.901 -20.861,-20.031C-16.508,-20.351 -12.895,-19.641 -9.344,-19.814C-7.222,-19.917 -4.844,-20.423 -2.608,-20.248C-0.497,-20.083 2.209,-19.911 3.26,-18.51C3.459,-18.244 3.243,-18.07 3.477,-17.858C5.123,-16.361 5.055,-13.331 4.998,-9.601C4.948,-6.311 4.971,-1.219 3.042,0.395C1.064,2.049 -6.442,1.381 -9.562,1.264C-13.195,1.13 -16.071,1.045 -19.991,1.264C-21.847,1.368 -23.711,1.69 -25.642,1.699C-27.286,1.707 -28.894,1.316 -30.639,1.264C-33.84,1.169 -39.283,1.641 -43.895,1.482C-47.602,1.354 -55.328,1.919 -57.368,0.612C-57.506,0.524 -58.051,-0.05 -58.236,-0.257C-59.038,-1.147 -59.067,-2.55 -59.322,-4.603C-60.639,-15.129 -59.163,-27.13 -59.975,-38.719C-60.433,-45.242 -60.41,-50.884 -60.41,-56.972C-60.41,-60.062 -60.757,-63.225 -60.628,-66.316C-60.498,-69.376 -60.619,-72.457 -59.975,-75.443C-60.696,-77.478 -60.341,-79.946 -60.41,-82.396C-60.517,-86.21 -61.573,-90.722 -59.758,-93.913C-59.507,-94.356 -58.788,-94.329 -59.106,-95C-57.252,-95.821 -57.082,-97.111 -54.76,-97.39C-50.369,-97.918 -45.41,-97.244 -40.418,-97.173C-31.552,-97.046 -22.112,-97.193 -13.256,-96.955C-8.602,-96.831 -3.802,-97.694 0,-95.869" style="fill:rgb(35,31,32);"/>
                </g>
                <g transform="matrix(1,0,0,1,687.297,167.313)">
                    <path d="M0,-92.602C1.476,-86.604 0.154,-79.907 0.218,-73.045C0.25,-69.584 0.436,-66.07 0.436,-62.397C0.436,-59.001 0,-55.495 0,-51.967C0,-48.498 0.037,-44.956 0,-41.536C-0.042,-37.42 -0.29,-33.004 -0.433,-29.584C-0.516,-27.608 -0.973,-24.933 -1.303,-22.414C-1.724,-19.221 -2.113,-16.094 -3.259,-13.504C-5.385,-8.703 -8.576,-4.95 -12.82,-2.205C-17.392,0.752 -24.246,2.949 -31.29,3.662C-33.338,3.87 -35.648,4.299 -37.592,4.315C-39.753,4.331 -41.938,3.825 -44.11,3.88C-49.613,4.017 -56.247,3.251 -62.581,2.141C-64.849,0.692 -67.197,0.28 -69.535,-1.118C-73.479,-3.477 -78.117,-7.594 -80.183,-12.635C-82.02,-17.116 -83.269,-23.997 -83.659,-30.888C-83.854,-34.277 -83.173,-37.836 -83.226,-41.319C-83.278,-44.854 -83.465,-48.305 -83.443,-51.532C-83.374,-62 -83.659,-71.788 -83.659,-83.04C-83.661,-89.983 -84.225,-94.481 -79.314,-95.644C-77.828,-95.996 -75.211,-95.598 -73.012,-95.644C-68.838,-95.731 -60.277,-96.933 -58.236,-93.906C-57.27,-92.472 -57.802,-89.317 -58.019,-86.3C-58.607,-78.113 -57.488,-67.408 -58.019,-59.354C-58.42,-53.247 -58.355,-43.336 -58.019,-37.19C-57.671,-30.86 -57.183,-25.917 -54.325,-21.762C-53.621,-21.595 -53.188,-21.161 -53.02,-20.458C-43.857,-15.099 -30.982,-16.96 -26.944,-25.021C-25.686,-27.534 -25.587,-32.034 -25.424,-36.755C-25.162,-44.325 -25.304,-52.374 -24.771,-59.572C-24.513,-63.059 -24.85,-66.721 -24.989,-70.003C-25.134,-73.42 -24.746,-76.599 -24.771,-79.129C-24.826,-84.876 -25.96,-92.181 -21.512,-94.558C-18.942,-95.931 -14.31,-95.236 -10.212,-95.209C-7.92,-95.194 -5.78,-95.413 -3.911,-94.992C-2.07,-94.578 -1.191,-93.654 0,-92.602" style="fill:rgb(35,31,32);"/>
                </g>
                <g transform="matrix(1,0,0,1,667.306,198.574)">
                    <path d="M0,-0.653C0.635,-0.972 0.635,0.319 0,-0.001L0,-0.653Z" style="fill:white;"/>
                </g>
                <g transform="matrix(1,0,0,1,606.68,277.47)">
                    <path d="M0,-1.32C-2.586,-1.536 -3.854,-0.841 -5.433,-0.017C-9.795,2.259 -12.756,5.076 -13.691,10.415C-14.278,13.768 -13.7,17.414 -12.604,21.062C-10.987,22.995 -9.262,24.817 -7.389,26.495C-3.3,28.52 2.435,29.57 6.953,28.233C7.811,27.978 8.515,27.491 9.344,27.145C11.141,26.397 12.902,25.492 14.559,25.192C14.839,23.379 16.137,22.93 16.732,21.714C19.358,16.337 17.727,6.482 13.906,3.025C13.275,2.455 11.893,1.902 10.647,1.286C8.854,0.402 7.712,-0.133 5.867,-0.668C5.341,-0.821 4.846,-1.267 4.563,-1.32C3.302,-1.554 1.69,-0.915 0.435,-1.538C0.386,-1.706 0.428,-1.966 0.218,-1.973C-0.035,-1.936 -0.02,-1.628 0,-1.32M40.418,-39.565C40.354,-17.089 40.71,10.254 40.634,33.884C40.629,35.59 40.477,38.388 40.418,41.055C40.358,43.668 39.886,46.377 38.896,47.355C37.067,49.166 33.64,48.66 29.986,48.66C26.656,48.66 22.27,48.992 20.209,48.225C18.351,47.532 17.854,45.847 16.298,45.617C15.479,45.496 14.501,46.004 13.472,46.487C12.615,46.888 11.496,47.387 11.082,48.008C4.737,49.26 -0.68,49.737 -6.521,48.878C-7.74,48.697 -8.933,48.821 -9.997,48.66C-12.42,48.292 -15.197,47.136 -17.601,46.052C-19.801,45.059 -22.315,43.709 -24.339,42.357C-27.571,40.198 -29.939,35.901 -32.16,31.057C-35.584,23.597 -37.11,11.757 -34.334,2.157C-33.877,0.579 -33.709,-1.108 -33.248,-2.408C-32.876,-3.447 -32.017,-4.411 -31.51,-5.449C-30.989,-6.51 -30.463,-7.559 -30.204,-8.709C-28.747,-9.492 -28.341,-11.048 -27.38,-12.185C-24.719,-15.337 -20.422,-17.335 -17.168,-20.226C-13.35,-21.846 -10.815,-22.007 -6.085,-22.615C0.613,-23.478 6.543,-21.95 11.733,-19.791C13.182,-19.188 14.708,-18.18 15.645,-18.27C19.328,-18.624 18.225,-27.654 18.253,-31.308C18.274,-34.021 18.354,-36.649 18.471,-39.131C18.69,-43.851 18.023,-48.042 21.295,-49.996C24.637,-50.636 29.919,-51.057 34.116,-50.864C35.698,-50.793 37.766,-50.621 38.896,-49.778C40.728,-48.413 41.458,-42.496 40.852,-40C40.721,-39.457 40.972,-39.177 40.418,-39.565" style="fill:rgb(35,31,32);"/>
                </g>
                <g transform="matrix(1,0,0,1,383.294,242.41)">
                    <path d="M0,84.37C-1.599,83.218 -2.949,81.815 -4.347,80.459C-8.139,73.553 -7.956,63.627 -7.606,52.428C-7.528,49.943 -7.518,47.667 -7.389,44.604C-7.263,41.635 -6.842,38.203 -7.606,36.346C-8.214,34.868 -10.846,34.525 -11.734,32.87C-11.799,32.749 -11.636,32.305 -11.734,32.219C-11.78,32.178 -12.151,32.268 -12.168,32.219C-13.039,29.854 -12.386,26.123 -12.386,23.527C-12.386,21.315 -12.671,19.083 -11.734,17.442C-11.471,16.98 -10.838,16.92 -10.865,16.139C-9.499,15.766 -7.959,15.567 -6.736,15.051C-5.445,11.012 -6.928,7.021 -6.52,3.317C-6.414,2.364 -6.091,0.651 -5.215,-0.16C-4.163,-1.134 -1.195,-1.286 1.086,-1.463C1.95,-1.53 4.186,-1.394 6.302,-1.247C9.132,-1.047 10.752,-1.138 12.604,-0.595C14.559,-0.02 15.401,2.611 15.428,5.49C15.456,8.44 14.356,13.932 15.862,15.486C17.096,16.758 20.614,15.909 22.6,17.007C25.601,18.669 25.136,23.679 24.773,28.742C24.621,30.841 24.181,33.412 22.816,34.392C21.358,35.437 18.03,34.954 16.297,36.346C13.085,38.928 14.361,47.897 14.342,53.949C14.333,56.536 13.436,61.659 15.211,63.728C16.552,65.289 19.638,64.763 21.078,66.117C22.33,67.295 22.439,70.031 22.382,72.854C22.331,75.358 22.667,78.646 22.165,79.807C21.497,81.351 21.877,81.394 20.862,82.632C20.717,82.807 20.34,82.851 20.209,83.067C20.075,83.288 20.167,83.556 19.992,83.72C19.883,83.82 19.437,83.608 19.339,83.72C19.283,83.783 19.408,84.11 19.339,84.153C18.23,84.864 14.209,85.881 12.604,85.891C11.468,85.9 10.29,85.49 9.126,85.458C7.984,85.426 6.927,85.706 5.868,85.676C3.479,85.604 1.694,84.749 0,84.37" style="fill:rgb(35,31,32);"/>
                </g>
                <g transform="matrix(1,0,0,1,0,-12.312)">
                    <path d="M690.123,339.092L690.559,339.092L690.559,338.659L690.123,338.659L690.123,339.092ZM687.732,285.42C686.012,285.667 682.921,287.384 681.865,288.462C680.612,289.74 679.695,291.425 679.909,293.676C682.088,295.875 685.798,295.844 689.905,295.85C693.89,295.855 698.016,295.931 699.9,293.894C699.741,288.072 694.084,284.504 687.732,285.42M689.253,267.817C695.296,267.575 702.868,269.216 706.639,271.729C707.461,272.279 708.124,272.638 709.027,273.25C711.616,275 714.155,278.095 716.416,280.638C719.777,284.42 722.92,294.211 722.936,301.065C722.939,303.208 722.438,305.63 721.849,307.367C720.216,312.163 714.308,311.077 708.594,311.062C701.741,311.042 695.131,311.295 690.341,311.279C686.696,311.265 680.874,310.439 680.562,313.45C680.303,315.939 684.342,317.786 686.429,318.665C691.268,320.704 700.764,321.112 707.289,319.753C711.365,318.904 716.541,315.86 719.893,317.579C723.171,319.26 722.848,330.981 720.545,333.877C719.577,335.096 716.941,336.091 715.112,336.919C713.758,337.532 712.042,338.007 710.115,338.441C706.264,339.308 701.276,340.012 696.206,339.962C693.531,339.936 690.926,339.543 688.385,339.31C683.529,338.864 678.77,338.162 674.694,336.051C673.794,335.584 672.975,334.86 672.087,334.313C669.967,333.005 668.6,332.197 666.872,330.4C666.102,329.602 665.587,328.662 664.916,327.794C663.548,326.024 661.827,324.324 660.787,322.577C659.827,320.966 659.25,318.712 658.614,316.493C657.961,314.216 657.081,311.905 656.876,309.974C656.198,303.613 656.988,296.417 658.614,291.285C658.881,290.442 659.394,289.757 659.701,288.897C660.034,287.962 660.004,286.847 660.353,286.07C660.438,285.881 661.04,285.552 661.223,285.202C661.735,284.212 662.299,283.129 662.961,282.159C665.097,279.016 666.848,276.28 669.914,273.902C670.819,273.2 672.423,272.516 673.608,271.729C675.859,270.233 680.438,268.411 683.82,268.035C685.49,267.849 687.371,267.893 689.253,267.817" style="fill:rgb(35,31,32);"/>
                </g>
                <g transform="matrix(1,0,0,1,536.492,325.093)">
                    <path d="M0,-67.632C0.364,-66.437 1.113,-65.441 1.303,-63.938C1.481,-62.518 1.303,-60.783 1.303,-59.156C1.303,-55.009 1.791,-50.28 0.868,-46.77C0.67,-46.021 0.275,-44.919 0,-44.599C-1.638,-42.696 -4.674,-43.17 -7.171,-42.641C-9.33,-42.185 -11.582,-41.34 -13.256,-40.252C-15.676,-38.68 -18.071,-36.195 -19.124,-33.081C-20.752,-28.255 -19.445,-21.244 -19.559,-14.175C-19.593,-12.032 -19.619,-9.714 -19.559,-7.005C-19.511,-4.948 -19.417,-2.97 -19.992,-1.572C-21.345,1.719 -25.771,0.982 -29.989,1.254C-33.361,1.47 -38.037,1.903 -39.767,0.602C-42.877,-1.738 -41.193,-8.738 -41.071,-13.523C-41.006,-16.062 -41.71,-18.948 -41.722,-21.999C-41.769,-33.279 -40.934,-45.25 -41.289,-56.549C-41.432,-61.135 -41.846,-64.364 -40.201,-67.197C-39.108,-67.65 -38.24,-68.499 -36.507,-68.718C-35.108,-68.895 -33.483,-68.575 -31.728,-68.501C-27.861,-68.338 -22.978,-69.503 -21.08,-67.415C-19.753,-65.954 -20.579,-64.191 -19.559,-62.2C-17.377,-62.223 -16.176,-64.03 -14.777,-65.024C-14.407,-65.287 -13.849,-65.397 -13.474,-65.676C-12.51,-66.392 -11.375,-67.218 -10.215,-68.067C-7.033,-68.898 -2.494,-69.535 0,-67.632" style="fill:rgb(35,31,32);"/>
                </g>
                <g transform="matrix(1,0,0,1,759.658,319.012)">
                    <path d="M0,-56.119C1.896,-56.388 3.192,-57.82 4.782,-58.943C6.494,-60.154 7.976,-61.473 10.432,-61.986C13.258,-62.575 17.859,-63.26 19.341,-60.248C20.01,-58.885 19.992,-54.817 19.992,-52.642C19.992,-48.341 20.414,-39.89 18.036,-37.866C16.896,-36.893 14.894,-37.056 13.038,-36.778C11.306,-36.518 9.882,-35.775 8.259,-35.692C3.548,-33.036 -0.362,-29.989 -1.086,-23.524C-1.427,-20.47 -0.729,-17.299 -0.65,-13.962C-0.509,-7.761 -1.008,-1.321 -1.086,4.291C-1.874,4.951 -2.637,5.637 -3.259,6.465C-4.805,6.622 -6.451,6.958 -8.257,6.9C-8.983,6.875 -10.128,6.985 -10.43,6.465C-11.688,6.96 -13.771,7.095 -15.645,7.117C-17.579,7.141 -19.916,6.698 -20.86,5.813C-23.668,3.183 -21.701,-5.15 -21.73,-9.833C-21.74,-11.72 -22.098,-13.548 -22.163,-15.483C-22.625,-28.807 -21.396,-45.505 -21.947,-58.292C-21.136,-59.974 -20.439,-62.347 -17.383,-62.854C-15.212,-63.215 -11.88,-62.541 -9.127,-62.42C-6.949,-62.324 -4.288,-62.827 -2.606,-61.986C-2.116,-61.741 -1.492,-61.411 -1.303,-61.116C-0.283,-59.521 -1.501,-57.383 0,-56.119" style="fill:rgb(35,31,32);"/>
                </g>
                <g transform="matrix(1,0,0,1,341.79,258.446)">
                    <path d="M0,68.334C0.124,67.79 -0.904,67.563 -1.086,67.249C-1.929,65.797 -1.104,62.301 -1.086,59.425C-1.07,56.563 -1.462,54.011 -1.521,51.819C-1.7,45.159 -1.431,38.717 -1.956,33.35C-2.081,32.075 -1.774,30.792 -1.956,29.872C-2.099,29.15 -2.693,28.462 -3.042,27.7C-4.009,25.582 -4.784,24.019 -6.303,22.266C-7.013,22.181 -7.707,22.079 -7.823,21.397C-10.071,21.074 -11.94,20.641 -13.69,21.18C-14.195,21.336 -14.805,21.321 -14.994,21.397C-17.487,22.392 -18.692,24.731 -20.209,26.613C-21.074,29.819 -21.289,33.714 -21.295,38.348C-21.306,44.816 -21.537,51.687 -21.079,58.557C-21.003,59.68 -20.901,60.762 -20.427,61.816C-20.851,62.764 -20.908,63.795 -21.079,64.857C-21.275,66.08 -21.15,66.837 -21.73,67.684C-23.426,70.152 -30.073,69.064 -34.116,68.987C-37.339,68.925 -41.575,69.537 -43.025,67.684C-43.938,66.519 -43.685,62.388 -43.678,60.513C-43.669,58.113 -43.499,54.816 -43.46,52.689C-43.42,50.454 -43.917,48.026 -43.678,45.954C-43.647,45.692 -44.366,45.046 -43.025,44.648C-44.018,44.384 -43.585,43.372 -43.678,42.692C-43.909,40.986 -43.671,39.218 -43.678,37.26C-43.679,36.501 -44.104,35.63 -44.113,34.871C-44.12,34.102 -43.668,33.449 -43.678,32.698C-43.693,31.55 -44.103,30.409 -44.113,29.221C-44.151,24.446 -43.477,19.247 -43.678,14.227C-43.783,11.592 -43.967,8.981 -43.895,6.403C-43.832,4.133 -43.913,1.707 -42.591,-0.115C-38.595,-1.684 -34.68,-0.612 -31.074,-0.55C-27.655,-0.492 -24.797,-1.409 -22.383,-0.115C-20.625,0.826 -20.514,2.964 -17.384,1.624C-16.743,1.348 -15.422,0.704 -14.777,0.103C-12.25,-0.517 -10.308,-1.107 -6.953,-1.42C-2.676,-1.818 2.021,-1.477 5.65,0.103C6.608,0.518 7.551,1.199 8.474,1.624C9.827,2.246 10.906,2.89 12.168,4.013C14.31,5.917 15.818,8.23 17.601,10.533C19.053,13.878 20.344,17.895 20.86,22.266C21.386,26.715 20.619,32.599 20.86,38.348C21.098,43.98 21.477,50.192 20.86,55.514C20.489,58.729 21.309,62.837 20.209,65.945C19.291,68.539 17.899,68.778 14.342,68.987C10.248,69.226 4.334,69.356 0,68.334" style="fill:rgb(35,31,32);"/>
                </g>
                <g transform="matrix(1,0,0,1,0,-8.317)">
                    <path d="M417.845,272.514L418.28,272.514L418.28,272.08L417.845,272.08L417.845,272.514ZM439.14,267.734C439.674,268.683 439.726,269.653 439.792,270.776C439.885,272.293 439.813,273.679 440.01,275.992C440.236,278.67 439.837,281.41 439.792,284.684C439.774,285.953 440.044,287.229 440.01,288.595C439.824,296.185 438.697,303.662 441.096,309.455C441.842,311.258 442.238,312.303 443.704,313.584C446.064,315.651 450.178,315.898 453.266,314.238C453.804,313.947 454.683,313.809 455.004,313.584C455.294,313.383 455.542,312.633 455.872,312.281C456.339,311.784 456.626,311.623 456.96,311.194C457.693,310.251 458.44,309.335 458.698,308.587C459.531,306.17 459.349,302.553 459.349,299.243C459.349,292.458 459.481,286.108 458.914,280.119C458.424,274.935 458.265,270.13 460.87,267.734C463.319,266.04 466.838,266.368 470.432,266.43C473.526,266.484 477.139,266.245 479.993,266.865C482.568,269.778 481.406,274.899 481.079,278.816C480.787,282.32 481.374,285.839 481.514,289.464C481.72,294.808 481.953,300.341 481.514,306.414C480.979,313.811 480.289,321.108 480.645,328.579C480.704,329.822 481.265,330.787 481.079,332.056C480.926,333.103 480.191,333.748 479.993,334.88C478.835,335.611 477.737,336.125 476.299,336.403C474.756,336.697 473.114,336.618 471.302,336.618C468.071,336.618 464.267,337.144 461.522,336.185C459.758,335.568 458.395,332.926 456.742,332.708C455.673,332.567 453.957,333.26 453.266,333.359C452.992,333.398 453.197,333.74 453.048,333.794C451.726,334.264 450.41,334.363 449.354,335.097C446.864,335.587 444.24,336.788 441.313,337.053C435.656,337.568 430.125,335.628 426.319,333.794C423.496,330.505 420.388,328.154 418.933,323.147C417.546,318.384 417.924,309.88 418.063,302.937C418.067,302.696 417.981,302.292 418.063,302.067C418.359,301.25 418.229,302.253 418.063,301.199C417.765,299.328 418.077,296.557 418.063,294.463C418.032,290.012 418.195,285.625 417.845,281.425C417.488,277.136 417.403,272.967 418.063,269.255C419.083,268.144 420.227,266.759 422.191,266.43C424.616,266.024 427.831,266.579 430.666,266.648C433.803,266.724 437.117,266.137 439.14,267.734" style="fill:rgb(35,31,32);"/>
                </g>
                <g transform="matrix(1,0,0,1,190.548,319.403)">
                    <path d="M0,-31.519C-0.077,-31.664 -0.077,-32.143 -0.218,-32.389C-0.354,-32.628 -0.875,-32.73 -1.087,-33.04C-1.372,-33.459 -1.263,-34.016 -1.522,-34.345C-2.879,-36.073 -3.585,-36.182 -5.433,-36.952C-9.501,-38.647 -17.531,-37.928 -19.775,-34.345C-20.783,-32.734 -22.201,-30.577 -22.599,-28.913C-23.168,-26.529 -21.131,-21.14 -19.992,-20.22C-19.766,-20.039 -19.242,-19.816 -18.905,-19.568C-17.136,-18.265 -14.198,-17.018 -11.734,-16.96C-6.545,-16.839 -1.686,-19.142 0.434,-22.827C1.156,-25.558 1.099,-29.436 0,-31.519M16.08,20.416C12.955,22.288 9.242,23.574 5.649,24.979C3.087,25.328 -0.39,26.003 -4.128,26.283C-5.973,26.42 -7.893,26.481 -9.778,26.501C-11.432,26.516 -13.025,26.905 -14.559,26.934C-15.794,26.959 -17.14,26.555 -18.471,26.501C-22.719,26.322 -25.598,26.204 -29.336,24.979C-31.417,24.297 -33.694,23.788 -35.203,23.024C-36.716,22.256 -39.047,20.507 -39.549,19.547C-39.736,19.188 -40.027,17.809 -40.201,17.156C-40.623,15.566 -40.517,11.921 -40.635,9.115C-40.708,7.38 -40.63,3.982 -39.767,3.032C-38.635,1.786 -35.947,2.162 -34.117,2.597C-31.615,3.193 -29.922,3.847 -27.597,4.553C-26.764,4.805 -25.107,5.76 -24.12,6.074C-23.332,6.323 -22.298,6.471 -21.296,6.726C-18.831,7.348 -14.313,7.757 -11.517,7.812C-7.688,7.888 -3.607,7.749 -1.304,6.074C0.321,4.89 3.315,1.027 1.086,-0.879C-0.309,-2.074 -4.729,0.489 -6.519,0.859C-10.27,1.631 -16.173,1.442 -19.123,1.076C-19.731,1.001 -20.311,0.615 -21.079,0.423C-23.128,-0.085 -25.222,-0.124 -27.163,-0.879C-28.011,-1.21 -29.049,-2.068 -29.988,-2.618C-32.005,-3.799 -33.47,-4.853 -34.985,-6.312C-35.31,-6.623 -35.332,-7.26 -35.855,-7.4C-37.299,-7.784 -38.517,-9.845 -39.549,-11.31C-40.064,-12.042 -40.251,-12.959 -40.853,-13.917C-40.94,-14.058 -41.41,-14.162 -41.505,-14.353C-42.007,-15.359 -42.444,-16.831 -42.809,-18.047C-44.404,-23.367 -44.724,-32.216 -43.026,-37.822C-42.962,-38.03 -42.667,-38.059 -42.591,-38.474C-42.333,-39.889 -41.866,-40.893 -41.288,-42.168C-40.459,-43.993 -40.115,-44.892 -39.114,-46.296C-38.533,-47.113 -37.903,-48.232 -37.159,-49.122C-36.785,-49.567 -36.248,-49.774 -35.855,-50.207C-33.613,-52.68 -31.123,-54.922 -27.597,-56.292C-23.286,-57.967 -15.757,-58.478 -9.996,-58.031C-8.914,-57.946 -7.696,-57.962 -6.737,-57.813C-5.287,-57.589 -3.34,-56.956 -1.956,-56.292C-1.399,-56.025 -0.457,-55.109 0.652,-55.207C2.022,-55.323 2.271,-56.956 3.911,-57.378C5.796,-57.865 9.98,-57.387 13.038,-57.378C15.91,-57.371 18.967,-57.621 20.426,-56.075C21.761,-54.66 21.655,-51.171 21.73,-47.383C21.798,-43.946 22.062,-40.605 22.164,-38.039C22.46,-30.631 21.934,-23.397 22.599,-16.091C22.975,-11.962 22.599,-7.123 22.599,-2.618C22.599,3.057 23.584,8.661 22.164,12.592C20.96,15.925 18.617,18.014 16.08,20.416" style="fill:rgb(35,31,32);"/>
                </g>
                <g transform="matrix(1,0,0,1,0,-67.315)">
                    <rect x="417.845" y="331.078" width="0.435" height="0.434" style="fill:white;"/>
                </g>
                <g transform="matrix(1,0,0,1,0,57.852)">
                    <rect x="690.123" y="268.495" width="0.436" height="0.433" style="fill:white;"/>
                </g>
                <g transform="matrix(1,0,0,1,602.333,350.538)">
                    <path d="M0,95.325C-0.839,95.718 -1.518,96.268 -2.174,96.846C-5.784,96.407 -9.474,97.888 -13.907,97.278C-14.301,97.225 -15.171,97.662 -14.992,96.628C-16.4,98.437 -18.165,96.643 -19.992,96.628C-20.041,95.864 -20.854,95.546 -21.078,94.672C-21.387,93.47 -20.808,92.585 -20.86,90.977C-20.885,90.277 -21.218,89.692 -21.295,88.804C-21.532,86.118 -20.968,82.896 -21.078,79.678C-21.179,76.72 -21.358,73.858 -21.295,70.768C-21.229,67.663 -21.463,64.219 -21.513,60.989C-21.563,57.689 -21.246,54.407 -21.73,52.08C-21.983,50.862 -22.95,49.141 -23.251,48.821C-24.119,47.903 -26.024,47.744 -26.945,46.865C-27.354,46.476 -27.22,45.871 -27.813,45.561C-28.119,43.319 -28.176,40.702 -28.249,38.174C-28.317,35.809 -28.489,33.053 -28.031,31.003C-27.846,30.166 -27.196,28.575 -26.51,27.961C-26.398,27.86 -25.957,28.07 -25.857,27.961C-25.748,27.836 -25.556,27.266 -25.207,27.091C-24.734,26.854 -24.167,26.976 -23.687,26.656C-23.718,26.679 -23.454,26.207 -23.469,26.222C-21.776,24.218 -22.402,16.403 -21.948,12.096C-21.525,8.1 -20.786,5.582 -18.687,2.971C-17.659,1.691 -16.649,0.982 -15.21,-0.071C-13.242,-1.515 -10.495,-1.98 -7.606,-2.678C-5.82,-3.112 -3.121,-2.763 -0.651,-2.678C2.817,-2.56 8.035,-2.726 10.865,-1.157C11.568,-0.769 12.336,-0.204 12.604,0.145C12.942,0.59 12.812,0.631 13.038,1.449C13.09,1.635 13.456,1.803 13.474,1.885C13.686,2.855 13.399,3.983 13.474,4.926C13.799,9.119 14.453,12.823 13.038,17.096C11.816,17.819 11.171,18.928 9.127,19.269C6.016,19.788 3.27,18.94 1.521,20.137C-1.016,21.874 -0.395,26.366 3.259,27.091C5.197,27.476 7.019,27.008 8.691,27.091C8.715,27.093 8.667,27.5 8.691,27.526C8.451,27.284 10.425,27.306 10.43,27.308C11.716,27.538 11.976,27.887 12.604,28.612C14.026,30.255 13.149,33.241 13.038,37.521C12.95,40.869 13.839,42.215 12.82,44.692C12.776,44.802 12.449,44.674 12.386,44.909C12.351,45.049 12.188,45.762 11.952,45.997C11.847,46.101 11.397,45.886 11.3,45.997C10.737,46.636 9.802,46.472 7.823,46.647C7.475,46.679 7.149,47.033 6.737,47.083C5.723,47.207 5.126,46.828 3.911,47.517C-0.034,49.757 0.888,57.288 0.87,62.729C0.866,63.532 0.768,65.046 0.87,65.336C1.163,66.178 0.938,66.512 0.87,68.162C0.613,74.273 1.012,79.863 1.087,85.11C1.095,85.63 1.06,86.042 1.087,86.631C1.171,88.425 0.978,93.022 0,95.325" style="fill:rgb(35,31,32);"/>
                </g>
                <g transform="matrix(1,0,0,1,96.4561,427.679)">
                    <path d="M0,-56.568C-0.886,-55.626 -2.26,-55.699 -3.042,-54.613C-4.493,-52.598 -4.286,-44.284 -3.042,-42.444C-0.491,-38.672 7.269,-39.604 12.821,-39.836C15.935,-39.966 19.205,-39.62 22.166,-39.62C25.438,-39.62 28.647,-40.011 30.423,-38.097C31.54,-35.887 31.075,-33.074 31.075,-29.84C31.075,-26.232 31.881,-22.499 29.989,-20.714C28.483,-19.295 24.086,-19.646 20.645,-19.629C17.371,-19.611 14.162,-19.061 11.518,-19.193C9.379,-19.299 7.143,-19.851 5.433,-19.629C2.421,-19.236 0.904,-17.63 -1.303,-16.585C-3.696,-12.368 -3.042,-5.422 -3.042,1.668C-3.042,4.704 -3.096,7.292 -3.042,10.36C-2.975,14.1 -2.727,18.51 -4.562,20.137C-6.635,21.975 -11.429,21.421 -14.341,21.443C-16.774,21.46 -17.921,21.755 -20.208,21.443C-20.854,21.354 -20.291,21.689 -20.642,21.661C-21.481,21.589 -22.077,21.345 -23.25,21.225C-23.906,20.431 -24.816,19.894 -25.857,19.487C-27.443,15.661 -26.516,11.426 -26.51,7.319C-26.505,4.233 -26.766,1.235 -26.945,-2.244C-26.991,-3.143 -27.363,-4.129 -27.379,-5.069C-27.401,-6.404 -26.982,-7.835 -26.945,-9.197C-26.903,-10.695 -26.945,-12.097 -26.945,-13.544C-26.945,-18.885 -27.334,-23.991 -27.597,-29.624C-27.712,-32.104 -27.983,-34.538 -28.031,-37.011C-28.16,-43.682 -27.466,-50.5 -27.813,-57.004C-28.108,-62.517 -28.906,-67.544 -27.379,-72.431C-27.331,-72.585 -26.999,-72.587 -26.945,-73.084C-26.65,-75.773 -24.954,-76.139 -22.815,-77.43C-9.665,-77.777 4.691,-77.068 18.253,-77.864C20.807,-78.013 27.474,-78.543 29.554,-77.43C29.897,-77.247 31.748,-74.785 31.944,-74.17C32.816,-71.444 32.555,-60.97 31.292,-58.96C29.129,-55.514 21.086,-56.726 15.43,-56.568C10.083,-56.42 4.727,-57.17 0,-56.568" style="fill:rgb(35,31,32);"/>
                </g>
                <g transform="matrix(1,0,0,1,38.0039,353.725)">
                    <path d="M0,-0.65C0.386,-0.491 0.03,-0.255 0,0C-0.388,-0.159 -0.032,-0.394 0,-0.65" style="fill:rgb(35,31,32);"/>
                </g>
                <g transform="matrix(1,0,0,1,262.04,427.843)">
                    <path d="M0,-47.388C0.502,-45.8 0.51,-43.909 0.435,-41.738C0.369,-39.855 0.898,-33.969 -0.869,-32.178C-2.249,-30.78 -4.569,-31.327 -6.953,-30.658C-10.667,-28.183 -9.779,-20.233 -9.779,-13.49C-9.779,-9.164 -9.806,-4.72 -8.475,-2.408C-6.409,-0.877 -4.227,-1.94 -2.391,-0.234C-1.33,0.752 -1.021,3.28 -1.086,6.285C-1.153,9.269 -0.719,12.346 -1.303,14.326C-1.685,15.615 -3.104,16.592 -3.259,17.367C-3.512,17.507 -3.813,17.608 -4.129,17.802C-5.042,18.359 -7.218,19.334 -8.909,19.541C-15.061,20.292 -21.703,19.675 -24.555,17.367C-25.698,16.442 -27.187,15.111 -28.032,13.673C-28.645,12.63 -29.221,10.804 -29.771,9.544C-31.708,5.096 -31.26,-1.834 -31.509,-8.492C-31.796,-16.155 -30.702,-22.781 -31.943,-29.787C-32.095,-30.263 -32.643,-30.388 -33.03,-30.658C-33.145,-30.737 -33.414,-31.285 -33.464,-31.308C-34.203,-31.646 -34.729,-31.524 -35.42,-32.178C-37.021,-33.696 -36.679,-37.543 -36.724,-40.869C-36.765,-43.877 -36.966,-47.275 -35.854,-48.693C-34.758,-50.092 -32.563,-49.627 -31.292,-50.431C-30.597,-52.663 -30.913,-54.973 -31.074,-57.385C-31.286,-60.561 -31.827,-64.156 -29.553,-65.641C-26.436,-67.68 -21.196,-66.879 -16.297,-66.729C-12.068,-66.598 -9.949,-65.806 -9.344,-61.296C-9.066,-59.226 -10.708,-52.138 -8.475,-50.214C-7.325,-49.222 -4.652,-49.917 -2.825,-49.344C-2.26,-49.167 -1.586,-48.673 -1.303,-48.476C-0.808,-48.125 -0.706,-47.36 0,-47.388" style="fill:rgb(35,31,32);"/>
                </g>
                <g transform="matrix(1,0,0,1,753.357,374.411)">
                    <path d="M0,70.582C-0.428,69.561 -2.442,70.125 -3.477,69.712C-3.276,69.045 -4.192,69.123 -4.564,68.626C-5.618,67.215 -5.192,65.365 -4.997,62.758C-4.75,59.421 -5.394,54.751 -5.215,50.808C-5.199,50.455 -4.75,50.064 -4.781,49.722C-4.818,49.297 -5.204,49.257 -5.215,48.852C-5.418,42.02 -4.552,32.798 -6.953,28.425C-7.703,27.061 -8.345,25.306 -9.562,24.297C-10.381,23.618 -11.254,23.753 -12.168,22.774C-14.082,23.001 -15.24,22.471 -16.95,22.774C-18.743,23.095 -20.897,24.614 -21.73,25.601C-22.602,26.635 -23.884,29.668 -24.121,31.468C-24.45,33.971 -24.202,37.62 -24.121,41.246C-24.045,44.597 -24.338,48.269 -24.338,51.46C-24.338,54.339 -23.905,57.98 -23.903,61.455C-23.901,64.882 -24.361,68.898 -25.424,69.929C-25.571,70.072 -25.925,70.016 -26.077,70.146C-27.194,71.115 -28.655,70.723 -31.074,70.799C-31.805,70.822 -32.586,71.234 -33.248,71.234C-34.015,71.232 -34.74,70.842 -35.421,70.799C-38.913,70.582 -42.215,71.433 -44.764,70.582C-45.216,69.946 -45.8,69.442 -46.502,69.061C-47.595,63.113 -46.229,56.972 -46.502,50.808C-46.64,47.741 -46.905,44.586 -46.937,41.463C-46.971,38.329 -46.555,35.122 -47.372,32.119C-46.516,30.149 -47.064,27.659 -46.937,25.383C-46.862,24.025 -46.516,22.661 -46.502,21.472C-46.465,17.825 -47.154,13.537 -47.154,9.52C-47.154,7.025 -46.766,2.829 -45.634,1.915C-45.131,1.508 -42.949,1.128 -42.156,1.045C-40.136,0.834 -37.22,1.002 -34.551,1.045C-30.252,1.115 -27.391,0.563 -24.771,2.35C-23.947,2.912 -23.565,3.795 -22.6,3.87C-21.16,3.982 -19.075,2.233 -17.601,1.697C-17.086,1.51 -16.261,1.446 -15.646,1.262C-15.12,1.104 -14.619,0.731 -14.124,0.611C-11.792,0.038 -9.259,0.325 -7.605,-0.041C-3.947,-0.851 1.95,1.298 4.78,2.783C8.063,4.507 9.459,6.179 11.516,9.086C12.464,10.423 13.622,11.69 14.342,13.215C17.47,19.834 16.826,27.631 16.732,36.684C16.682,41.565 18.082,47.393 17.384,53.849C17.267,54.932 16.839,55.709 16.732,56.675C16.494,58.814 16.874,61.344 16.732,63.628C16.607,65.632 16.237,67.889 15.21,68.843C12.985,70.91 6.55,69.765 2.606,69.929C1.714,69.968 0.536,69.763 0,70.582" style="fill:rgb(35,31,32);"/>
                </g>
                <g transform="matrix(1,0,0,1,661.223,429.634)">
                    <path d="M0,-37.446C-6.948,-38.122 -14.162,-33.978 -11.953,-28.755C-9.918,-26.797 -5.73,-27.232 -1.738,-27.232C0.521,-27.232 2.739,-27.58 4.345,-26.799C4.611,-28.052 6.714,-27.472 7.17,-28.537C8.136,-34.01 3.427,-35.646 0,-37.446M-24.557,8.405C-26.81,7.24 -27.894,4.877 -29.336,2.972C-30.391,1.582 -31.682,0.326 -32.596,-1.375C-32.868,-1.881 -32.723,-2.71 -33.466,-2.895C-33.85,-5.44 -34.562,-7.493 -35.204,-10.284C-36.532,-16.057 -35.814,-24.644 -34.116,-30.711C-32.971,-34.809 -31.409,-37.851 -29.119,-41.358C-28.279,-42.643 -27.896,-43.098 -26.945,-44.182C-26.875,-44.265 -26.311,-44.587 -26.295,-44.617C-26.194,-44.806 -26.437,-45.333 -26.295,-45.485C-25.835,-45.984 -24.771,-46.624 -24.121,-47.223C-20.491,-50.584 -14.167,-54.056 -8.259,-54.612C-6.632,-54.765 -4.729,-54.891 -3.478,-54.83C3.366,-54.499 11.296,-53.596 16.73,-49.397C17.899,-48.495 19.307,-46.885 20.643,-45.703C21.839,-44.643 23.241,-42.926 24.336,-41.358C25.942,-39.057 26.469,-37.642 27.596,-34.62C29.263,-30.155 31.132,-23.008 29.551,-17.237C29.214,-16.001 28.966,-14.535 28.248,-13.76C25.323,-10.6 17.823,-11.38 11.516,-11.369C8.849,-11.366 6.088,-11.606 3.911,-12.022C2.594,-11.649 0.262,-11.479 -1.738,-11.587C-2.582,-11.633 -3.877,-11.591 -4.347,-12.239C-7.005,-11.473 -12.132,-12.65 -12.387,-9.414C-12.566,-7.155 -9.486,-5.765 -7.606,-4.851C-5.967,-4.051 -4.722,-3.414 -2.608,-2.895C1.446,-1.901 9.802,-2.03 13.906,-2.895C16.36,-3.412 19.979,-5.021 22.598,-5.502C25.151,-5.972 27.04,-5.551 28.03,-4.199C29.378,-2.359 29.373,8.166 27.596,10.796C27.524,10.902 26.962,11.45 26.728,11.664C25.749,12.557 22.32,13.935 20.209,14.705C19.828,14.845 19.249,14.77 18.903,14.923C18.451,15.128 18.436,15.455 18.035,15.575C14.89,16.511 10.833,17.25 6.518,17.097C6.157,17.084 5.59,17.158 5.215,17.097C4.458,16.971 4.188,16.614 3.259,16.879C3.211,16.893 3.052,17.313 3.041,17.314C1.403,17.445 -0.292,16.796 -1.956,16.661C-3.065,16.574 -4.108,16.761 -5.216,16.661C-6.202,16.574 -7.251,16.182 -8.259,16.011C-9.343,15.825 -10.438,15.802 -11.301,15.575C-13.827,14.914 -16.21,13.647 -18.472,12.534C-20.688,11.443 -22.976,10.302 -24.557,8.405" style="fill:rgb(35,31,32);"/>
                </g>
                <g transform="matrix(1,0,0,1,520.194,401.255)">
                    <path d="M0,20.269C-1.618,23.281 0.312,26.827 3.042,27.874C4.312,28.361 6.582,28.308 8.257,28.526C10.08,28.764 11.873,29.123 13.472,28.96C17.516,28.55 21.21,26.172 21.077,22.442C21.003,20.373 19.099,18.649 17.818,17.878C15.374,16.411 12.15,15.933 8.257,16.357C4.184,16.801 1.183,18.064 0,20.269M16.73,44.39C12.253,46.261 6.78,46.321 0.868,46.128C-2.718,46.009 -6.8,45.331 -9.344,44.172C-9.847,43.944 -10.083,43.415 -10.649,43.084C-11.94,42.332 -14.082,41.638 -15.212,40.696C-16.318,39.771 -17.148,37.958 -18.253,36.567C-18.57,36.168 -19.308,35.859 -19.559,35.481C-19.882,34.988 -20.268,33.917 -20.645,33.09C-21.842,30.455 -22.741,26.002 -22.817,22.007C-22.902,17.45 -21.53,14.407 -19.559,11.142C-18.381,9.195 -17.249,7.65 -15.864,6.362C-14.597,5.183 -11.96,3.867 -9.997,3.101C-8.1,2.362 -6.009,2.021 -4.129,1.147C1.682,0.661 7.836,-0.255 13.906,0.277C15.804,0.444 17.633,1.425 19.557,0.712C23.937,-2.594 17.454,-6.365 13.906,-6.894C9.215,-7.592 4.146,-6.542 -0.435,-5.373C-2.021,-4.968 -3.736,-4.884 -5.217,-4.502C-7.94,-3.799 -12.959,-0.993 -15.864,-2.764C-16.034,-2.869 -15.788,-3.122 -16.082,-3.2C-18.056,-3.726 -16.938,-7.2 -16.95,-9.285C-16.961,-11.239 -17.816,-15.078 -17.168,-17.324C-16.473,-19.729 -14.719,-20.252 -11.735,-21.453C-10.822,-21.821 -9.594,-22.554 -8.693,-22.756C-7.245,-23.082 -5.489,-24.04 -3.477,-24.495C3.426,-26.052 11.67,-25.853 18.687,-25.365C20.169,-25.26 21.735,-25.149 23.033,-24.929C24.77,-24.638 26.119,-23.561 27.813,-23.627C29.389,-22.091 31.77,-21.451 33.898,-19.932C35.951,-18.466 38.185,-15.819 39.549,-13.196C39.971,-12.379 40.688,-11.306 40.852,-10.587C41.44,-8.027 41.092,-3.612 41.287,0.277C41.354,1.639 41.757,2.974 41.722,4.189C41.687,5.347 41.061,6.362 41.069,7.448C41.076,8.366 41.628,9.373 41.722,10.272C42.155,14.504 41.687,19.742 41.722,24.832C41.737,27.32 41.722,29.907 41.722,32.437C41.72,37.329 42.256,42.395 39.113,44.172C36.956,45.393 32.211,44.883 28.248,45.04C26.769,45.101 25.031,45.38 24.119,45.04C22.708,44.515 22.349,42.39 20.86,42.216C19.62,42.072 18.431,43.474 17.384,43.955C17.018,44.123 16.9,43.919 16.73,44.39" style="fill:rgb(35,31,32);"/>
                </g>
                <g transform="matrix(1,0,0,1,465.651,378.673)">
                    <path d="M0,69.361C-3.39,69.321 -5.003,69.507 -8.041,69.579C-10.73,69.644 -13.839,70.371 -16.08,69.361C-17.976,68.508 -18.699,64.666 -18.688,61.757C-18.674,58.017 -18.159,53.992 -18.471,50.022C-18.916,44.319 -18.597,37.676 -18.688,30.9C-18.773,24.608 -18.202,18.263 -18.471,12.865C-18.663,9.014 -19.265,3.28 -17.167,1.347C-15.686,-0.02 -11.385,0.102 -8.041,0.259C-4.854,0.412 1.206,-0.14 2.174,2C2.736,3.243 2.167,5.265 3.26,6.344C5.402,6.218 6.872,4.726 8.257,3.738C9.746,2.674 11.118,1.579 12.604,0.477C16.407,0.003 20.241,-1.01 22.381,1.347C24.313,3.476 23.613,8.994 23.469,12.647C23.368,15.144 24.28,19.745 23.251,22.424C23.231,22.472 22.878,22.486 22.816,22.642C21.709,25.411 18.151,24.896 15.646,25.467C13.275,26.006 10.556,27.371 9.127,28.292C8.03,28.998 6.121,30.664 5.215,31.986C4.848,32.522 3.766,33.979 3.477,34.81C1.801,39.63 3.166,46.128 3.26,51.978C3.291,53.928 3.26,56.851 3.26,59.801C3.26,62.318 3.581,65.326 2.824,66.972C2.268,68.181 1.279,68.118 0,69.361" style="fill:rgb(35,31,32);"/>
                </g>
                <g transform="matrix(1,0,0,1,180.77,518.006)">
                    <path d="M0,-0.435C0.082,-0.849 0.276,-0.297 0.217,0C0.134,0.414 -0.06,-0.14 0,-0.435" style="fill:rgb(35,31,32);"/>
                </g>
                <g transform="matrix(1,0,0,1,795.731,334.687)">
                    <path d="M0,-121.338C-4.133,-121.437 -8.363,-121.771 -11.299,-122.425C-13.615,-120.971 -16.25,-122.114 -18.904,-122.207C-20.263,-122.256 -21.396,-121.886 -22.816,-121.773C-31.467,-121.084 -39.814,-121.751 -48.24,-121.773C-54.812,-121.789 -62.253,-121.51 -68.015,-121.556C-69.546,-121.568 -71.787,-121.412 -72.795,-121.773C-73.835,-122.145 -73.192,-121.987 -74.1,-121.773C-75.746,-121.384 -78.134,-121.644 -79.75,-121.773C-81.283,-121.895 -82.79,-122.408 -84.313,-122.425C-87.913,-122.463 -91.588,-121.734 -95.178,-121.773C-99.126,-121.815 -102.995,-122.409 -106.912,-122.425C-110.678,-122.44 -114.495,-122.767 -118.211,-122.641C-129.836,-122.253 -141.369,-121.773 -152.762,-121.773C-156.705,-121.773 -160.585,-121.586 -164.497,-121.556C-167.202,-121.534 -170.251,-121.507 -172.536,-121.773C-173.473,-121.881 -174.264,-122.411 -175.145,-122.425C-176.021,-122.438 -177.068,-122.072 -177.969,-121.991C-183.786,-121.458 -189.114,-121.685 -194.918,-121.773C-198.102,-121.821 -201.142,-122.39 -204.045,-122.207C-205.916,-122.089 -208.489,-122.12 -210.781,-121.991C-213.756,-121.823 -216.733,-121.793 -219.69,-121.773C-222.938,-121.752 -226.009,-121.923 -229.252,-122.207C-232.478,-122.489 -236.059,-122.71 -239.247,-122.641C-242.364,-122.576 -245.389,-121.978 -248.591,-121.991C-250.087,-121.996 -251.437,-121.828 -252.938,-121.991C-253.403,-122.04 -253.476,-122.376 -253.806,-122.425C-254.038,-122.458 -254.597,-122.214 -254.894,-122.207C-262.171,-122.033 -269.445,-121.308 -276.624,-121.556C-283.106,-121.778 -289.516,-121.337 -295.963,-121.121C-299.099,-121.016 -302.34,-121.535 -305.524,-121.556C-305.521,-121.556 -305.701,-121.124 -305.742,-121.121C-306.009,-121.097 -305.886,-121.543 -305.96,-121.556C-309.321,-122.116 -311.995,-121.231 -314.217,-121.338C-318.477,-121.543 -322.398,-122.711 -327.255,-122.425C-328.721,-122.339 -330.236,-121.794 -331.817,-121.773C-333.559,-121.75 -334.337,-122.28 -336.164,-122.207C-342.532,-121.955 -348.735,-120.841 -355.068,-121.338C-358.438,-121.603 -361.518,-121.138 -364.848,-121.121C-366.556,-121.112 -368.142,-121.063 -369.845,-120.903C-375.229,-120.399 -383.074,-120.213 -388.968,-120.903C-389.255,-120.937 -389.301,-120.694 -389.621,-120.687C-395.868,-120.539 -402.169,-120.033 -407.439,-120.469C-408.995,-120.597 -410.709,-121.197 -412.219,-121.121C-413.674,-121.047 -414.697,-120.365 -416.348,-120.253C-424.044,-119.718 -432.351,-120.392 -438.73,-120.469C-441.93,-120.507 -447.067,-120.583 -450.247,-120.687C-450.54,-120.696 -450.924,-120.466 -451.333,-120.469C-451.628,-120.472 -452.026,-120.92 -452.203,-120.903C-452.729,-120.856 -453.053,-119.966 -453.724,-120.253C-455.457,-120.829 -457.281,-120.304 -459.156,-120.469C-460.301,-120.57 -461.464,-120.995 -462.633,-121.121C-463.863,-121.253 -465.142,-121.329 -466.327,-121.338C-468.251,-121.353 -470.72,-121.478 -472.412,-121.121C-473.02,-120.993 -473.18,-120.344 -473.933,-120.469C-473.195,-121.22 -473.926,-120.988 -475.02,-121.121C-477.213,-121.388 -480.122,-120.869 -481.539,-120.903C-483.938,-120.963 -486.581,-121.192 -489.145,-121.121C-490.768,-121.076 -492.416,-120.634 -493.924,-120.687C-495.594,-120.744 -497.226,-121.519 -498.922,-121.556C-500.828,-121.598 -502.743,-121.198 -504.572,-121.121C-506.521,-121.039 -508.229,-121.392 -510.222,-121.556C-513.934,-121.86 -517.67,-121.426 -521.305,-121.338C-523.168,-121.294 -524.93,-121.602 -526.737,-121.556C-528.474,-121.511 -530.212,-121.189 -531.952,-121.121C-535.568,-120.98 -538.888,-121.973 -542.382,-122.207C-546.112,-122.458 -549.799,-121.056 -553.247,-121.773C-552.854,-122.18 -553.382,-121.786 -553.682,-121.773C-556.293,-121.664 -559.125,-122.298 -561.939,-122.425C-564.802,-122.553 -567.737,-122.39 -570.415,-122.641C-572.916,-122.879 -575.461,-123.651 -578.02,-123.511C-579.46,-123.432 -580.78,-122.818 -582.148,-122.641C-583.727,-122.438 -585.218,-122.692 -586.93,-122.641C-587.257,-122.632 -587.448,-122.249 -587.798,-122.207C-588.191,-122.16 -588.511,-122.456 -588.885,-122.425C-591.379,-122.215 -593.632,-121.655 -596.056,-121.773C-597.643,-121.849 -599.208,-122.334 -600.836,-122.425C-602.745,-122.531 -604.742,-122.436 -606.704,-122.641C-611.678,-123.163 -617.265,-122.527 -622.784,-122.425C-628.465,-122.319 -634.219,-122.862 -639.733,-123.076C-648.962,-123.436 -658.944,-121.772 -668.417,-122.859C-672.048,-123.276 -676.052,-123.216 -679.717,-123.076C-682.712,-122.963 -685.444,-122.327 -688.409,-122.641C-688.995,-122.705 -689.045,-122.935 -689.495,-123.076C-689.963,-123.223 -690.294,-123.063 -690.798,-123.076C-692.581,-123.123 -694.422,-122.78 -696.231,-122.641C-698.233,-122.489 -700.135,-121.902 -702.098,-121.773C-704.199,-121.634 -706.56,-121.812 -708.834,-121.991C-712.825,-122.303 -717.207,-122.359 -722.09,-122.207C-724.416,-122.136 -726.644,-121.772 -728.826,-121.773C-731.087,-121.773 -733.425,-122.355 -735.78,-122.425C-738.027,-122.491 -740.334,-122.094 -742.517,-122.207C-744.836,-122.328 -747.143,-122.182 -749.47,-122.207C-751.735,-122.233 -754.224,-122.556 -756.423,-121.773C-758.312,-119.18 -757.516,-115.849 -757.51,-112.864C-757.507,-111.301 -757.78,-109.607 -757.727,-108.082C-757.668,-106.402 -756.89,-104.871 -756.858,-103.302C-756.834,-102.105 -757.26,-100.742 -757.292,-99.391C-757.396,-95.102 -757.53,-91.219 -757.51,-87.005C-757.485,-81.768 -757.177,-76.153 -757.727,-71.141C-758.02,-68.48 -757.753,-65.852 -757.51,-63.102C-757.285,-60.557 -757.416,-57.954 -757.292,-55.496C-757.161,-52.842 -756.838,-50.165 -757.076,-47.455C-757.2,-46.037 -757.359,-44.631 -757.292,-43.326C-757.223,-41.942 -756.78,-40.75 -756.858,-39.415C-756.982,-37.308 -757.76,-35.312 -757.944,-33.331C-758.331,-29.183 -757.808,-24.35 -757.944,-19.423C-758.008,-17.164 -758.611,-14.94 -758.597,-12.687C-758.572,-9.026 -757.951,-5.364 -757.944,-1.605C-757.935,3.51 -758.027,11.853 -757.292,17.082C-757.608,18.133 -757.612,17.128 -758.162,17.517C-759.018,25.018 -758.788,32.908 -758.379,40.335C-758.232,43.005 -758.254,45.725 -758.379,48.374C-758.645,53.999 -758.346,59.623 -758.597,65.324C-758.974,73.901 -759.975,81.756 -759.683,89.227C-759.631,90.547 -759.237,91.862 -759.249,93.138C-759.289,97.451 -759.158,101.564 -759.683,105.525C-759.872,106.949 -760.06,108.136 -760.118,109.435C-760.177,110.777 -759.989,111.942 -759.9,113.347C-759.646,117.414 -760.26,122.022 -759.9,125.516C-759.748,127.002 -759.629,127.974 -759.683,129.427C-759.779,132.004 -759.481,134.656 -759.683,137.25C-759.891,139.912 -760.413,142.534 -760.335,145.073C-760.293,146.421 -759.668,147.836 -759.683,149.203C-759.695,150.248 -760.012,151.415 -760.118,152.462C-760.507,156.307 -759.861,159.246 -759.683,162.457C-758.527,163.433 -757.283,164.441 -756.206,165.065C-754.881,165.831 -753.49,165.663 -751.208,165.933C-746.006,166.555 -740.662,166.369 -735.346,166.369C-729.892,166.369 -724.768,165.641 -719.917,165.716C-718.14,165.744 -716.636,166.296 -714.919,166.369C-711.944,166.496 -708.951,165.434 -705.357,165.5C-702.643,165.548 -699.917,165.726 -697.318,165.5C-696.53,165.432 -695.843,165.057 -695.145,165.065C-694.393,165.074 -693.521,165.433 -692.754,165.5C-689.71,165.761 -686.606,165.656 -683.627,165.5C-679.725,165.295 -675.772,164.498 -672.546,164.631C-671.207,164.685 -669.947,165.039 -668.634,165.065C-657.808,165.279 -648.333,164.586 -639.082,164.848C-636.289,164.928 -633.626,165.111 -630.824,164.631C-630.347,164.549 -629.783,164.307 -629.085,164.195C-624.58,163.484 -619.314,163.762 -614.743,164.195C-612.005,164.455 -609.409,164.611 -606.704,164.631C-604.134,164.649 -601.418,165.141 -598.88,165.065C-597.521,165.024 -596.298,164.662 -594.969,164.631C-590.458,164.524 -586.791,164.926 -582.8,164.631C-579.92,164.418 -577.467,164.51 -574.977,164.413C-563.88,163.979 -552.791,163.613 -541.514,163.977C-530.813,164.324 -520.005,163.308 -509.136,163.977C-503.646,164.317 -498.226,163.472 -492.621,163.977C-486.897,164.496 -481.337,163.545 -475.671,163.545C-464.175,163.543 -452.767,163.838 -441.12,163.327C-438.625,163.218 -436.245,162.95 -433.731,163.109C-414.597,164.324 -395.315,162.891 -376.147,162.891C-364.983,162.891 -353.692,162.614 -342.465,162.675C-339.722,162.688 -336.972,162.922 -334.208,162.891C-328.238,162.828 -322.556,162.294 -317.258,162.457C-313.273,162.579 -309.376,162.731 -305.524,162.239C-301.056,161.67 -297.304,161.504 -293.356,161.807C-290.582,162.018 -287.878,162.319 -285.098,162.457C-281.695,162.627 -277.503,163.144 -274.886,163.327C-269.442,163.705 -264.891,162.926 -260.326,162.457C-257.602,162.178 -254.807,162.788 -252.067,162.675C-246.232,162.433 -241.09,162.444 -235.337,162.891C-232.813,163.088 -230.205,162.814 -227.731,162.891C-221.92,163.074 -216.302,162.398 -210.781,162.022C-210.337,161.992 -210.36,162.461 -210.13,162.457C-210.053,162.455 -209.826,162.043 -209.478,162.022C-201.032,161.527 -189.365,162.473 -181.662,162.239C-174.51,162.023 -167.411,162.267 -160.367,161.589C-154.772,161.05 -149.366,161.573 -144.07,161.371C-142.188,161.299 -140.342,160.786 -138.42,160.719C-136.354,160.648 -134.294,160.719 -132.119,160.719C-122.464,160.719 -110.596,160.28 -101.479,160.719C-99.224,160.828 -97.741,161.452 -96.047,161.589C-91.99,161.914 -87.571,160.982 -83.227,160.936C-78.729,160.889 -74.217,160.891 -69.753,160.936C-60.911,161.022 -51.736,161.237 -43.461,160.501C-34.598,159.714 -25.73,160.05 -16.949,159.633C-14.655,159.523 -12.317,159.657 -9.995,159.633C-4.197,159.571 2.592,159.552 8.91,159.198C9.807,157.62 10.983,156.837 11.518,155.286C12.52,152.37 11.93,147.567 11.952,143.553C12.004,133.936 12.299,123.086 11.952,113.782C11.843,110.857 11.68,107.752 11.734,104.655C11.789,101.536 11.468,98.354 11.734,95.31C12.175,90.272 12.072,85.027 11.952,80.752C11.904,79.081 11.45,77.496 11.518,75.972C11.549,75.23 11.885,74.573 11.952,73.799C12.03,72.894 11.887,71.902 11.952,70.975C12.619,61.466 12.55,50.873 11.952,40.985C11.641,35.85 12.898,30.98 12.603,26.209C12.279,20.933 12.087,15.461 12.387,10.999C12.628,7.416 12.474,4.421 12.387,1.002C12.341,-0.752 11.928,-2.478 11.952,-4.213C11.968,-5.424 12.325,-6.562 12.387,-7.69C12.454,-8.95 12.272,-10.065 12.17,-11.384C11.974,-13.877 12.266,-16.069 12.387,-18.555C12.617,-23.293 11.402,-28.094 11.3,-32.897C11.25,-35.18 11.512,-37.402 11.518,-39.632C11.519,-40.329 11.475,-40.918 11.518,-41.588C11.535,-41.874 11.938,-41.784 11.952,-42.023C11.954,-42.051 11.531,-42.359 11.518,-42.675C11.466,-43.848 11.197,-44.888 11.082,-46.152C10.621,-51.222 11.902,-56.196 11.518,-61.146C11.162,-65.717 11.302,-70.356 11.082,-75.053C10.835,-80.388 11.485,-87.744 11.3,-91.785C10.855,-101.439 11.697,-110.514 10.648,-119.382C8.396,-121.761 4.143,-121.239 0,-121.338M-128.425,-136.115C-127.79,-135.795 -127.79,-137.086 -128.425,-136.767L-128.425,-136.115ZM11.082,-144.372C11.174,-146.819 10.691,-148.889 10.648,-151.109C10.594,-153.865 11.082,-156.738 11.082,-159.583C11.082,-162.43 11.219,-165.232 11.082,-168.058C10.957,-170.698 10.715,-173.145 10.648,-175.663C10.573,-178.568 10.918,-181.202 11.3,-184.138C11.653,-186.853 11.45,-189.738 11.3,-192.613C10.868,-200.843 11.084,-210.107 11.082,-218.689C11.082,-224.177 11.991,-229.822 11.952,-235.421C11.911,-241.151 11.344,-246.782 11.734,-252.371C12.133,-258.067 12.17,-263.822 12.17,-269.537C12.17,-274.781 12.323,-279.923 11.952,-284.097C11.897,-284.714 12.368,-285.732 11.518,-286.052C10.918,-287.22 9.676,-286.642 8.693,-286.704C7.475,-286.78 6.092,-286.893 4.781,-286.921C-1.682,-287.063 -7.94,-287.495 -14.342,-287.573C-18.151,-287.62 -22.038,-287.295 -25.425,-288.225C-25.713,-288.23 -25.621,-287.834 -25.857,-287.791C-28.648,-287.279 -32.14,-287.791 -35.42,-287.791C-38.608,-287.791 -41.876,-287.488 -44.981,-287.356C-51.738,-287.069 -58.584,-287.625 -64.973,-287.356C-68.15,-287.222 -71.267,-287.526 -74.533,-287.791C-77.939,-288.066 -81.389,-287.511 -84.747,-287.573C-88.136,-287.636 -91.363,-287.872 -94.742,-287.573C-96.458,-287.421 -98.063,-287.309 -99.74,-287.356C-101.377,-287.401 -103.087,-287.791 -104.739,-287.791C-106.364,-287.791 -107.906,-287.406 -109.519,-287.356C-111.219,-287.303 -112.931,-287.552 -114.734,-287.573C-117.625,-287.607 -120.651,-286.933 -123.644,-286.921C-126.973,-286.908 -130.276,-287.114 -133.64,-287.356C-137.004,-287.598 -140.296,-287.363 -143.635,-287.356C-146.742,-287.349 -149.911,-287.651 -152.979,-287.573C-156.404,-287.485 -159.75,-286.974 -163.191,-286.921C-166.488,-286.871 -169.708,-287.521 -172.971,-287.573C-178.447,-287.661 -183.725,-286.89 -189.486,-286.921C-191.41,-286.932 -193.447,-286.854 -195.354,-286.921C-195.797,-286.937 -195.981,-287.404 -196.439,-287.356C-196.381,-287.362 -196.604,-286.946 -196.657,-286.921C-196.852,-286.831 -197.308,-286.925 -197.525,-286.921C-201.783,-286.851 -207.338,-286.561 -212.302,-286.921C-212.65,-286.947 -213.074,-287.348 -213.39,-287.356C-213.756,-287.365 -214.258,-286.938 -214.692,-286.921C-215.787,-286.88 -216.86,-286.921 -217.952,-286.921C-223.536,-286.921 -229.089,-286.002 -234.902,-286.052C-236.436,-286.066 -237.707,-286.352 -239.247,-286.486C-242.315,-286.754 -245.541,-286.393 -248.591,-286.486C-251.727,-286.583 -254.821,-287.003 -257.936,-286.921C-261.308,-286.833 -264.688,-286.432 -267.932,-286.486C-269.421,-286.512 -270.972,-286.911 -272.494,-286.921C-274.27,-286.934 -276.195,-286.447 -277.927,-286.486C-281.266,-286.563 -284.29,-287.041 -287.488,-286.921C-290.576,-286.806 -293.627,-286.289 -296.833,-286.052C-301.673,-285.694 -308.185,-286.307 -311.825,-286.486C-317.467,-286.766 -324.967,-286.486 -332.904,-286.486C-335.844,-286.486 -338.85,-286.881 -341.813,-286.921C-345.636,-286.973 -349.488,-286.512 -353.547,-286.704C-354.818,-286.764 -356.591,-286.671 -357.023,-287.573C-357.865,-286.445 -359.699,-286.862 -360.936,-286.921C-362.231,-286.983 -363.625,-287.415 -364.63,-287.356C-365.645,-287.296 -366.87,-286.884 -367.889,-286.704C-373.314,-285.744 -379.652,-286.018 -385.925,-285.835C-390.641,-285.697 -395.522,-285.856 -400.268,-285.835C-405.077,-285.813 -409.901,-285.692 -414.61,-285.835C-419.112,-285.971 -423.687,-286.151 -427.865,-285.183C-431.376,-285.999 -434.917,-285.657 -438.513,-286.052C-443.637,-286.615 -448.748,-286.962 -453.506,-286.486C-453.946,-286.442 -454.397,-286.094 -454.811,-286.052C-456.673,-285.864 -458.544,-286.512 -460.46,-286.486C-462.142,-286.464 -463.787,-286.069 -465.458,-286.052C-467.069,-286.035 -468.656,-286.273 -470.238,-286.27C-471.643,-286.266 -472.948,-286.176 -474.368,-286.27C-476.146,-286.387 -477.696,-285.981 -479.365,-286.052C-481.823,-286.157 -484.027,-286.981 -486.318,-286.921C-488.964,-286.853 -491.514,-285.942 -494.359,-285.835C-497.642,-285.712 -501.297,-285.804 -504.79,-285.835C-508.441,-285.867 -512.171,-285.544 -515.654,-285.835C-517.047,-285.951 -518.435,-286.461 -519.784,-286.486C-522.008,-286.528 -524.084,-285.901 -526.302,-286.052C-528.239,-286.184 -530.175,-286.724 -532.169,-286.704C-533.694,-286.689 -535.294,-286.251 -536.949,-286.052C-542.199,-285.424 -547.519,-285.319 -552.813,-284.966C-555.896,-284.76 -559.212,-284.351 -562.374,-284.531C-564.162,-284.633 -565.72,-285.107 -567.372,-285.183C-569.15,-285.265 -570.698,-284.951 -572.587,-284.748C-579.332,-284.026 -586.673,-284.314 -593.883,-284.314C-602.596,-284.314 -612.116,-284.093 -619.525,-284.748C-620.773,-284.859 -622.103,-284.878 -623.436,-284.966C-625.824,-285.122 -628.215,-285.933 -630.606,-286.052C-632.712,-286.157 -634.523,-285.368 -636.473,-285.183C-643.677,-284.498 -651.204,-284.984 -657.769,-285.617C-659.968,-285.83 -662.232,-286.486 -664.506,-286.486C-665.689,-286.486 -666.813,-286.135 -667.982,-286.052C-668.417,-286.022 -668.936,-286.276 -669.286,-286.27C-669.914,-286.256 -670.471,-286.067 -671.024,-286.052C-673.562,-285.984 -676.103,-286.53 -678.63,-286.486C-680.612,-286.452 -682.46,-286.052 -684.498,-286.052C-688.804,-286.052 -693.02,-285.901 -697.101,-286.052C-698.818,-286.116 -700.599,-286.525 -702.316,-286.486C-703.396,-286.463 -704.485,-286.061 -705.575,-286.052C-706.491,-286.045 -707.462,-286.494 -708.4,-286.486C-709.338,-286.479 -709.632,-286.152 -710.139,-286.052C-710.619,-285.957 -710.771,-286.485 -710.79,-286.486C-714.721,-286.666 -717.881,-286.386 -721.221,-286.27C-728.879,-286.003 -736.46,-287.024 -743.82,-286.052C-745.424,-285.84 -747.168,-285.183 -748.817,-285.183C-749.598,-285.183 -750.33,-285.534 -751.208,-285.617C-752.144,-285.707 -753.269,-285.619 -754.25,-285.617C-755.894,-285.615 -757.401,-285.649 -758.814,-284.748C-759.412,-282.688 -759.122,-280.525 -759.032,-278.446C-758.937,-276.286 -758.928,-274.428 -759.249,-272.145C-759.854,-267.828 -759.125,-263.32 -759.249,-258.889C-759.497,-249.939 -759.37,-240.877 -759.466,-231.727C-759.488,-229.552 -759.644,-227.432 -759.466,-225.208C-758.983,-219.155 -759.517,-212.384 -759.466,-205.868C-759.414,-199.142 -759.163,-192.215 -759.683,-185.877C-759.868,-183.624 -760.303,-181.195 -760.118,-179.14C-759.974,-177.543 -759.289,-176.142 -759.249,-174.577C-759.157,-171.072 -759.863,-167.471 -759.683,-164.581C-759.432,-160.545 -759.126,-155.929 -759.466,-151.76C-759.528,-150.996 -759.925,-150.117 -759.9,-149.37C-759.85,-147.84 -758.868,-146.464 -758.814,-145.024C-758.79,-144.366 -759.208,-143.643 -759.249,-143.068C-759.3,-142.32 -759.617,-141.285 -758.814,-140.677C-756.567,-138.372 -753.889,-140.005 -751.208,-139.809C-749.889,-139.712 -748.588,-139.307 -747.297,-139.156C-742.811,-138.635 -738.683,-139.229 -734.258,-138.939C-725.758,-138.382 -716.745,-138.954 -708.184,-139.156C-705.28,-139.226 -702.233,-138.781 -699.274,-138.722C-696.365,-138.665 -693.507,-139.067 -690.582,-138.722C-689.103,-138.548 -687.829,-138.228 -686.453,-138.288C-684.954,-138.352 -683.647,-138.773 -682.106,-138.722C-679.864,-138.648 -677.939,-137.94 -675.805,-137.853C-673.854,-137.774 -671.956,-137.917 -669.938,-137.853C-665.378,-137.709 -660.561,-137.515 -656.248,-137.853C-654.198,-138.013 -652.362,-138.539 -650.381,-138.505C-648.126,-138.466 -645.932,-137.961 -643.644,-137.636C-641.485,-137.328 -639.203,-136.564 -637.125,-136.55C-634.519,-136.531 -631.746,-137.378 -629.085,-137.636C-624.717,-138.06 -619.665,-137.513 -616.265,-137.636C-614.778,-137.69 -613.421,-137.817 -611.919,-137.853C-609.209,-137.919 -606.554,-138.796 -603.878,-138.722C-601.637,-138.661 -599.446,-138.302 -597.142,-138.288C-589.535,-138.241 -580.793,-137.712 -573.891,-137.418C-572.646,-137.365 -571.442,-137.422 -570.197,-137.418C-564.208,-137.399 -557.499,-136.497 -551.075,-136.332C-541.858,-136.095 -532.523,-136.496 -523.26,-136.332C-518.792,-136.253 -514.302,-137.215 -509.787,-137.201C-507.691,-137.195 -505.617,-136.758 -503.486,-136.767C-502.351,-136.771 -501.152,-137.031 -500.009,-136.984C-499.035,-136.944 -498.125,-136.528 -497.184,-136.55C-495.668,-136.584 -494.135,-137.064 -492.621,-137.201C-490.939,-137.355 -489.181,-137.418 -487.406,-137.418C-484.173,-137.418 -480.989,-136.815 -477.409,-136.55C-469.909,-135.991 -462.572,-138.101 -455.897,-137.853C-453.628,-137.768 -451.531,-137.135 -449.378,-136.984C-446.295,-136.767 -443.068,-137.181 -439.817,-137.418C-436.597,-137.653 -433.376,-137.272 -430.255,-137.418C-427.156,-137.565 -423.818,-137.101 -420.694,-136.984C-414.093,-136.737 -407.901,-136.416 -401.572,-136.115C-398.396,-135.963 -395.188,-136.486 -392.01,-136.55C-386.991,-136.649 -382.027,-136.205 -377.451,-136.115C-375.9,-136.084 -374.388,-135.699 -372.889,-135.68C-370.906,-135.655 -368.807,-136.087 -366.803,-136.115C-360.087,-136.211 -353.204,-136.55 -346.376,-136.55C-336.999,-136.55 -327.598,-136.072 -318.563,-136.332C-316.959,-136.379 -315.238,-136.973 -313.999,-136.984C-313.585,-136.988 -313.162,-136.752 -312.695,-136.767C-310.205,-136.845 -307.81,-137.257 -305.307,-137.201C-300.521,-137.094 -295.71,-136.757 -290.966,-136.984C-288.598,-137.098 -286.188,-137.614 -283.795,-137.418C-275.73,-136.757 -265.023,-138.016 -258.152,-136.332C-257.188,-136.095 -256.239,-135.559 -255.329,-135.463C-252.154,-135.128 -248.338,-135.705 -244.68,-135.68C-241.261,-135.658 -237.827,-136.3 -234.467,-136.115C-227.499,-135.729 -220.496,-134.98 -214.04,-135.68C-213.222,-135.769 -212.681,-136.078 -211.868,-136.115C-211.03,-136.153 -210.19,-135.902 -209.26,-135.898C-207.53,-135.888 -205.92,-136.262 -204.263,-136.332C-197.61,-136.613 -190.607,-135.568 -183.836,-135.898C-178.294,-136.167 -173.149,-137.543 -167.104,-136.984C-166.674,-136.944 -165.054,-137.466 -165.365,-136.115C-164.535,-135.936 -165.108,-137.162 -164.279,-136.984C-156.771,-136.958 -148.249,-137.058 -140.594,-136.984C-140.503,-136.983 -140.611,-136.481 -140.158,-136.55C-140.095,-136.559 -139.971,-136.937 -139.508,-136.984C-138.06,-137.131 -136.915,-136.902 -135.813,-136.767C-135.38,-136.713 -134.043,-137.153 -134.291,-136.115C-132.531,-137.408 -130.235,-137.005 -128.207,-136.984C-121.502,-136.914 -114.739,-136.543 -107.998,-136.332C-100.949,-136.111 -93.641,-136.332 -87.137,-136.332C-84.917,-136.332 -82.854,-136.861 -80.618,-136.984C-74.769,-137.305 -68.972,-136.228 -63.234,-136.767C-57.48,-137.307 -51.643,-136.635 -46.067,-136.55C-40.868,-136.47 -35.455,-136.877 -30.422,-136.984C-24.241,-137.116 -18.461,-136.249 -12.387,-136.332C-10.496,-136.357 -8.638,-136.704 -6.736,-136.767C-4.658,-136.835 -2.538,-136.737 -0.434,-136.767C3.354,-136.82 7.176,-136.194 10.864,-136.984C11.322,-139.427 10.99,-141.89 11.082,-144.372M-129.511,-302.784C-129.212,-303.606 -128.032,-303.205 -127.555,-303.219C-120.58,-303.418 -111.224,-303.186 -106.912,-303.002C-105.809,-302.954 -104.797,-303.034 -103.869,-303.002C-102.94,-302.969 -102.04,-302.471 -101.263,-303.002C-100.776,-302.419 -100.366,-302.692 -99.957,-303.219C-98.735,-302 -95.617,-303.337 -93.656,-302.35C-91.438,-302.788 -88.974,-302.655 -86.485,-302.567C-83.589,-302.465 -80.59,-302.38 -77.576,-302.132C-71.609,-301.643 -65.518,-301.864 -59.541,-301.698C-50.359,-301.442 -42.48,-304.066 -33.028,-303.219C-30.155,-302.962 -27.349,-302.297 -24.555,-302.35C-22.705,-302.384 -21.148,-303.07 -19.34,-303.219C-17.532,-303.367 -15.792,-303.068 -13.689,-302.784C-10.077,-302.296 -6.494,-302.894 -3.26,-302.784C-0.49,-302.691 2.234,-302.528 5.432,-302.35C6.04,-302.316 6.201,-301.939 6.52,-301.915C6.932,-301.885 7.174,-302.34 7.605,-302.35C9.271,-302.386 11.041,-302.491 12.82,-302.784C14.687,-303.091 16.776,-303.651 18.253,-303.436C20.8,-303.066 22.15,-300.579 24.556,-299.742C26.324,-297.04 27.882,-294.76 28.25,-290.181C28.477,-287.351 27.797,-284.206 28.25,-280.837C29.769,-269.515 28.202,-257.032 28.685,-245.634C28.78,-243.336 28.259,-240.822 29.118,-238.681C28.067,-235.17 29.022,-231.441 28.685,-227.816C28.525,-226.117 28.032,-224.46 28.032,-221.948C28.032,-220.043 28.335,-218.047 28.25,-216.081C28.161,-214.074 27.666,-212.224 27.598,-210.214C27.533,-208.312 27.524,-206.521 27.598,-204.564C27.751,-200.425 27.162,-196.379 27.162,-192.178C27.162,-187.973 27.638,-183.772 27.598,-179.574C27.578,-177.425 27.391,-175.585 27.598,-173.49C28.497,-164.386 28.841,-153.043 28.467,-143.068C28.315,-138.991 27.751,-134.9 27.814,-130.682C27.879,-126.526 28.174,-122.391 27.814,-118.296C27.448,-114.114 27.38,-109.835 27.38,-105.693C27.38,-102.047 27.934,-98.489 27.814,-95.045C27.559,-87.585 27.777,-79.362 27.38,-71.359C27.175,-67.23 27.162,-63.088 27.162,-58.973C27.162,-54.962 27.439,-50.973 27.598,-47.02C27.756,-43.024 28.444,-38.884 28.467,-34.852C28.503,-28.406 28.471,-22.033 28.685,-15.946C28.75,-14.054 29.094,-12.18 29.118,-10.296C29.173,-6.19 28.377,-1.947 28.685,2.09C29.001,6.256 29.696,10.182 29.553,14.258C29.43,17.804 29.205,21.319 29.118,24.906C29.022,28.961 28.564,32.936 28.9,36.858C29.217,40.522 29.467,44.084 29.553,47.724C29.652,51.835 29.947,55.872 29.988,59.891C30.006,61.642 29.652,63.37 29.553,65.106C29.099,73.105 29.225,82.955 29.336,90.313C29.367,92.381 29.171,94.202 28.9,96.181C28.342,100.285 28.561,104.361 28.685,108.566C28.736,110.341 29.062,112.079 29.118,113.782C29.182,115.645 28.807,117.359 28.685,119.215C28.287,125.222 29.472,131.45 29.336,137.25C29.319,137.915 29.441,138.968 29.336,139.641C29.212,140.44 28.702,140.817 28.685,141.597C28.667,142.313 28.787,142.752 28.9,143.553C29.362,146.798 29.59,152.041 28.685,155.722C29.092,158.657 29.33,162.204 29.336,166.151C29.339,168.482 29.049,169.643 27.162,171.584C24.357,174.47 20.672,173.54 14.776,173.54C13.307,173.54 11.692,173.532 10.214,173.54C8.916,173.547 7.313,173.102 6.302,174.192C-6.222,174.836 -18.317,173.087 -29.552,173.975C-29.61,173.978 -30.194,174.409 -30.205,174.409C-30.829,174.411 -31.165,174.016 -31.726,173.975C-33.685,173.83 -35.562,173.774 -37.593,173.757C-37.817,173.755 -38.576,173.566 -38.461,173.54C-38.696,173.593 -38.609,173.976 -38.896,173.975C-39.03,173.975 -39.124,173.483 -39.549,173.54C-39.798,173.573 -39.769,173.935 -40.199,173.975C-40.194,173.975 -40.389,173.697 -40.635,173.757C-41.485,173.964 -41.694,173.405 -43.243,173.54C-43.533,173.564 -43.581,173.953 -43.894,173.975C-44.05,173.985 -44.262,173.755 -44.546,173.757C-46.768,173.771 -49.075,173.469 -51.5,173.54C-57.624,173.72 -63.999,174.673 -70.405,174.192C-73.73,173.941 -78.261,173.122 -81.922,173.54C-82.248,173.577 -82.699,173.433 -83.009,173.54C-83.23,173.615 -83.398,174.18 -83.442,174.192C-84.09,174.358 -84.932,174.086 -85.615,174.192C-88.487,174.638 -92.652,174.808 -96.48,174.625C-104.188,174.261 -113.116,175.34 -119.081,175.713C-127.231,176.223 -135.155,175.713 -143.417,176.365C-144.613,176.459 -145.652,176.853 -146.895,176.799C-147.697,176.766 -148.689,176.448 -150.372,176.581C-152.53,176.753 -154.71,177.218 -156.891,177.233C-159.241,177.251 -161.667,176.903 -164.062,176.799C-166.465,176.694 -168.921,176.917 -171.232,176.799C-181.354,176.28 -192.464,176.834 -202.958,176.799C-205.929,176.79 -208.613,176.871 -211.216,177.016C-211.851,177.052 -212.18,176.841 -212.736,176.799C-212.952,176.783 -212.952,177.276 -213.39,177.233C-213.551,177.218 -213.612,176.786 -214.04,176.799C-214.28,176.806 -214.245,177.248 -214.692,177.233C-214.974,177.225 -215.041,176.77 -215.346,176.799C-215.858,176.849 -216.288,177.228 -216.866,177.233C-219.225,177.253 -221.383,177.239 -223.819,177.451C-226.297,177.667 -228.84,177.279 -231.425,177.451C-233.245,177.571 -234.872,178.049 -236.641,178.103C-241.928,178.265 -247.498,177.177 -252.938,177.233C-254.712,177.253 -256.664,177.457 -258.37,177.233C-260.019,177.017 -261.511,176.475 -263.15,176.365C-265.104,176.232 -267.011,176.478 -268.801,176.581C-270.302,176.67 -271.754,176.958 -273.147,176.581C-273.382,177.485 -273.883,176.79 -274.45,176.799C-275.117,176.809 -275.896,176.954 -276.624,177.016C-279.521,177.264 -283.375,177.423 -286.836,177.233C-288.583,177.139 -290.219,176.823 -291.834,176.799C-295.529,176.742 -298.981,177.037 -302.483,177.233C-305.783,177.42 -309.009,177.122 -312.261,177.016C-315.327,176.917 -318.414,177.728 -321.604,177.887C-324.91,178.049 -328.332,177.515 -331.817,177.233C-338.751,176.675 -345.856,178.092 -352.461,176.799C-352.637,176.758 -352.677,176.581 -352.896,176.581C-353.522,177.616 -354.957,177.27 -355.938,177.451C-356.951,177.639 -357.984,178.016 -358.979,178.103C-361.286,178.306 -363.645,178.09 -365.933,178.319C-374.324,179.167 -383.35,178.756 -393.314,178.755C-395.437,178.755 -397.682,178.993 -399.833,178.972C-402.24,178.949 -404.491,178.436 -406.787,178.537C-409.181,178.643 -411.477,179.605 -413.958,179.625C-419.047,179.665 -424.683,179.898 -429.821,179.407C-432.053,179.193 -434.285,178.622 -437.426,178.755C-444.889,179.069 -453.157,178.279 -460.894,179.189C-463.315,179.475 -465.341,178.94 -467.414,178.972C-470.231,179.016 -473.002,179.392 -475.889,179.407C-478.808,179.421 -481.681,179.542 -484.58,179.842C-490.175,180.422 -495.755,179.577 -501.313,179.842C-504.238,179.98 -507.093,180.146 -510.004,180.058C-512.704,179.978 -515.283,179.32 -518.045,179.407C-520.805,179.494 -523.524,180.01 -526.302,180.275C-528.887,180.524 -531.558,180.263 -534.125,180.275C-539.863,180.308 -545.56,180.894 -551.291,180.71C-556.738,180.535 -562.296,180.795 -567.806,180.71C-575.216,180.598 -581.981,180.827 -590.84,180.493C-597.002,180.262 -602.437,180.624 -608.007,180.493C-610.509,180.434 -613.111,180.393 -615.613,180.275C-621.249,180.009 -626.92,180.468 -632.563,180.275C-641.214,179.981 -650.031,179.865 -658.855,180.275C-661.831,180.415 -664.796,180.162 -667.765,180.058C-670.555,179.961 -673.415,180.431 -676.239,180.493C-685.472,180.696 -692.681,180.82 -700.578,180.493C-706.921,180.231 -712.612,181.106 -717.961,181.145C-720.843,181.167 -723.651,180.679 -726.437,180.928C-729.033,181.159 -731.617,182.061 -734.258,182.231C-737.08,182.413 -740.181,181.612 -743.385,181.58C-746.527,181.549 -749.836,181.796 -752.947,181.798C-759.278,181.798 -765.444,183.305 -770.983,182.666C-771.157,182.646 -771.86,182.513 -772.069,182.449C-773.106,182.138 -772.899,182.035 -773.59,181.363C-774.422,180.553 -777.284,178.729 -777.284,177.016C-777.284,173.898 -776.957,170.736 -776.85,167.454C-776.744,164.21 -777.258,160.81 -777.068,157.677C-776.971,156.101 -776.517,154.586 -776.415,153.113C-776.209,150.119 -776.309,147.155 -776.415,143.986C-776.417,143.93 -776.849,143.788 -776.85,143.77C-776.875,143.5 -776.429,143.664 -776.415,143.553C-776.3,142.619 -776.488,141.574 -776.415,140.292C-775.961,132.212 -776.589,124.049 -775.546,116.173C-774.986,111.944 -775.305,108.511 -774.677,104.437C-773.92,99.527 -775.112,92.263 -775.112,85.967C-775.112,80.6 -774.054,75.169 -775.112,69.887C-774.261,69.165 -774.778,67.985 -774.677,67.062C-774.072,61.575 -775.091,53.558 -774.895,48.592C-774.878,48.212 -775.121,48.016 -775.112,47.724C-775.103,47.455 -774.726,47.433 -774.677,47.288C-774.552,46.913 -774.896,46.721 -774.895,46.636C-774.859,44.751 -774.7,40.834 -774.677,37.509C-774.652,33.792 -775.131,30.043 -775.112,26.209C-775.071,18.342 -776.196,11.114 -775.98,3.393C-775.968,2.921 -776.017,2.535 -775.98,2.09C-775.978,2.049 -775.398,2.053 -775.546,1.655C-775.559,1.619 -775.98,1.435 -775.98,1.437C-776.101,-1.834 -776.063,-4.167 -775.98,-6.819C-775.881,-10.065 -775.499,-13.391 -775.33,-16.599C-774.475,-32.668 -774.148,-48.214 -774.242,-63.753C-774.255,-65.856 -773.86,-67.76 -773.808,-69.838C-773.761,-71.684 -774.129,-73.783 -774.242,-75.706C-774.921,-87.263 -774.422,-99.546 -774.677,-112.647C-774.687,-113.143 -775.059,-112.883 -775.112,-113.082C-775.154,-113.242 -774.704,-114.151 -774.677,-115.036C-774.617,-117.018 -774.937,-118.841 -775.112,-120.903C-775.456,-124.981 -774.562,-129.172 -774.677,-133.29C-774.733,-135.328 -775.176,-137.379 -775.112,-139.374C-775.052,-141.224 -774.512,-143.075 -774.459,-145.024C-774.407,-146.978 -774.916,-148.72 -775.112,-150.673C-775.738,-156.911 -775.125,-162.879 -774.677,-168.927C-774.532,-170.892 -774.646,-172.969 -774.459,-175.012C-774.272,-177.072 -774.079,-179.145 -774.242,-181.096C-774.587,-185.238 -774.619,-189.214 -774.895,-193.265C-775.163,-197.203 -774.597,-201.057 -774.459,-204.999C-774.327,-208.8 -775.347,-212.83 -775.33,-216.95C-775.294,-224.827 -774.99,-233.597 -775.33,-241.071C-775.763,-250.633 -775.767,-261.776 -776.415,-271.276C-776.475,-272.145 -776.628,-273.048 -776.633,-273.883C-776.649,-277.243 -776.995,-283.797 -776.633,-287.573C-776.525,-288.699 -776.108,-290.769 -775.98,-292.788C-775.695,-297.3 -776.447,-299.664 -772.069,-299.742C-769.891,-302.107 -763.808,-301.263 -758.814,-301.263C-753.83,-301.263 -749.101,-301.485 -744.255,-301.263C-742.647,-301.19 -741.229,-300.914 -739.691,-300.829C-736.966,-300.676 -734.167,-301.123 -731.652,-301.046C-725.378,-300.853 -719.009,-301.614 -712.746,-301.915C-706.802,-302.2 -701.167,-302.452 -695.362,-301.915C-692.59,-301.658 -689.635,-301.031 -686.67,-301.263C-680.391,-301.754 -674.465,-302.146 -668.634,-302.35C-658.829,-302.692 -648.096,-301.09 -637.125,-301.698C-636.162,-301.751 -635.143,-301.767 -634.301,-301.915C-633.874,-301.99 -633.962,-302.321 -633.649,-302.35C-633.036,-302.405 -632.348,-302.157 -631.693,-302.132C-630.289,-302.08 -628.518,-302.339 -627.13,-301.915C-622.439,-303.123 -618.108,-300.984 -613.657,-300.829C-611.236,-300.744 -608.782,-301.111 -606.269,-301.263C-598.922,-301.709 -592.044,-302.754 -584.974,-302.567C-582.379,-302.499 -580.404,-302.288 -577.368,-302.567C-576.851,-302.615 -576.33,-302.505 -575.847,-302.567C-575.658,-302.591 -575.474,-302.998 -575.194,-303.002C-574.626,-303.009 -574.012,-303.23 -573.021,-303.219C-570.28,-303.189 -567.748,-302.4 -565.2,-302.35C-562.627,-302.299 -560.138,-302.993 -557.376,-303.219C-552.492,-303.618 -547.436,-303.204 -543.252,-302.132C-542.666,-301.983 -542.272,-301.746 -541.731,-301.698C-539.998,-301.545 -538.43,-302.296 -536.733,-302.35C-535.33,-302.394 -533.989,-301.859 -532.604,-301.915C-529.878,-302.025 -527.179,-302.921 -524.346,-303.219C-523.181,-303.341 -521.815,-303.185 -520.436,-303.219C-519.297,-303.247 -518.075,-303.682 -516.958,-303.653C-515.502,-303.617 -514.166,-303.194 -512.613,-303.219C-506.499,-303.317 -498.353,-303.025 -493.055,-303.219C-490.17,-303.324 -487.254,-303.624 -484.363,-303.653C-481.3,-303.685 -478.302,-303.187 -475.236,-303.219C-472.175,-303.251 -469.174,-303.288 -466.11,-303.219C-463.304,-303.156 -460.512,-303.605 -457.853,-303.436C-456.305,-303.338 -454.818,-302.65 -453.289,-302.567C-451.15,-302.451 -449.012,-303.056 -446.77,-303.002C-445.169,-302.963 -443.724,-302.616 -442.207,-302.784C-441.735,-302.836 -441.404,-303.183 -440.902,-303.219C-438.792,-303.372 -436.567,-302.729 -434.384,-302.784C-433.358,-302.81 -432.292,-302.984 -431.342,-303.002C-430.817,-303.012 -430.31,-302.994 -429.821,-303.002C-423.978,-303.097 -412.737,-303.228 -405.266,-303.002C-404.245,-302.971 -403.211,-303.2 -402.224,-303.219C-401.174,-303.239 -400.063,-302.793 -398.964,-302.784C-397.959,-302.776 -396.92,-303.005 -395.921,-303.002C-394.194,-302.995 -392.34,-303.195 -390.707,-303.002C-388.494,-302.738 -386.466,-302.618 -384.187,-302.567C-380.137,-302.476 -375.895,-301.546 -371.15,-302.132C-364.709,-302.928 -357.609,-302.031 -350.94,-302.784C-350.44,-303.914 -349.979,-302.181 -349.42,-302.784C-344.574,-302.892 -339.909,-302.168 -335.078,-302.132C-330.494,-302.098 -325.829,-302.874 -321.17,-303.219C-316.237,-303.584 -311.217,-303.734 -306.176,-304.088C-301.077,-304.445 -295.468,-304.341 -290.53,-304.523C-287.263,-304.643 -283.728,-304.267 -280.318,-303.871C-278.712,-303.685 -276.901,-303.575 -275.32,-303.653C-273.848,-303.726 -272.413,-304.191 -270.974,-304.088C-269.212,-303.963 -267.766,-303.755 -265.977,-303.871C-255.58,-304.545 -243.344,-302.972 -232.076,-303.871C-230.242,-304.017 -228.626,-303.964 -226.861,-303.871C-219.475,-303.479 -209.338,-303.544 -200.786,-302.784C-197.41,-302.484 -193.967,-302.801 -190.571,-303.002C-183.81,-303.401 -176.934,-303.103 -170.146,-302.35C-166.624,-301.959 -163.342,-301.935 -159.933,-302.132C-155.015,-302.418 -150.472,-303.464 -144.94,-303.219C-140.381,-303.017 -134.713,-303.873 -129.511,-302.784" style="fill:rgb(35,31,32);"/>
                </g>
                <g transform="matrix(1,0,0,1,216.842,96.4405)">
                    <path d="M0,46.503C-0.469,46.03 0.057,45.065 0.217,44.113C0.606,41.809 0.71,40.578 -0.435,38.463C-2.554,34.548 -7.458,31.647 -10.865,28.467C-11.189,28.165 -11.377,27.883 -11.735,27.598C-12.47,27.012 -13.48,26.192 -14.342,25.425C-19.051,21.232 -23.912,16.5 -26.945,10.214C-28.772,6.429 -29.489,2.109 -29.119,-3.693C-29.025,-5.17 -29.186,-6.593 -28.901,-7.822C-28.76,-8.433 -28.216,-8.86 -28.033,-9.56C-27.853,-10.247 -28.032,-11.107 -27.815,-11.733C-27.554,-12.485 -26.896,-13.163 -26.511,-13.906C-26.097,-14.706 -25.815,-15.686 -25.424,-16.297C-23.973,-18.568 -21.743,-19.909 -19.34,-22.164C-16.628,-22.701 -13.845,-24.778 -9.996,-25.641C-4.278,-26.923 2.914,-26.963 9.344,-26.51C11.035,-26.391 12.996,-26.569 14.559,-26.292C17.461,-25.78 21.007,-24.378 21.947,-23.468C25.053,-20.461 22.458,-12.879 23.251,-6.953C22.701,-6.587 22.688,-5.95 22.382,-5.432C19.567,-0.685 7.475,-6.166 1.303,-3.911C0.354,-3.564 -0.355,-3.305 -0.87,-2.824C-1.621,-2.122 -2.762,-0.004 -2.825,0.87C-2.932,2.378 -1.765,4.683 -0.435,6.302C1.025,8.082 2.896,9.334 4.563,10.866C6.256,12.422 8.048,13.767 9.778,15.212C11.07,16.29 12.386,17.526 13.689,18.689C16.171,20.9 17.999,22.472 20.209,25.208C21.008,26.197 22.022,27.422 22.599,28.467C22.984,29.165 23.063,30.136 23.468,31.075C24.084,32.505 25.035,33.853 25.424,35.856C25.59,36.712 25.472,37.646 25.642,38.68C25.771,39.47 26.198,40.238 26.292,41.07C26.805,45.533 25.978,49.397 24.989,52.805C23.51,57.903 21.583,60.845 18.253,64.105C17.28,65.057 16.326,65.881 15.211,66.712C14.174,67.485 13.13,68.566 12.168,69.102C11.371,69.547 10.212,69.816 9.344,70.189C8.428,70.583 7.754,71.198 6.953,71.493C6.507,71.657 5.626,71.532 4.998,71.71C2.447,72.43 -0.711,73.1 -4.781,73.231C-5.545,73.256 -6.345,72.979 -7.171,73.014C-7.789,73.041 -8.534,73.466 -9.127,73.448C-10.531,73.406 -11.836,73.043 -13.256,73.014C-16.458,72.948 -19.107,73.043 -22.383,72.145C-25.203,71.371 -27.101,70.561 -28.033,68.233C-28.096,68.073 -28.443,68.087 -28.467,68.016C-29.626,64.542 -28.48,57.78 -28.684,54.543C-28.807,52.596 -29.045,50.759 -28.033,49.545C-26.822,48.095 -23.625,47.642 -21.295,47.807C-15.9,48.189 -8.729,51.722 -3.042,48.894C-1.784,48.267 -1.625,47.132 0,46.503" style="fill:rgb(35,31,32);"/>
                </g>
                <g transform="matrix(1,0,0,1,771.611,72.6403)">
                    <path d="M0,96.162C-4.123,98.137 -9.613,97.441 -14.995,97.248C-20.365,97.057 -26.042,97.571 -31.51,97.248C-35.605,97.007 -42.927,96.651 -48.676,96.814C-49.769,96.845 -50.925,97.258 -51.937,97.248C-52.632,97.242 -53.668,96.885 -54.543,96.814C-60.532,96.329 -68.361,98.189 -71.059,95.076C-71.741,92.088 -72.227,88.852 -71.275,85.949C-70.602,83.896 -68.521,81.829 -67.146,79.647C-65.801,77.51 -64.412,75.254 -63.234,73.346C-61.888,71.159 -60.329,69.096 -59.107,67.044C-58.289,65.672 -57.537,64.258 -56.717,62.915C-56.357,62.328 -55.986,60.958 -54.761,61.177C-55.278,60.162 -54.39,58.561 -53.891,57.7C-53.297,56.671 -52.351,55.737 -51.719,54.658C-49.889,51.534 -47.933,48.093 -45.852,44.879C-45.158,43.808 -44.338,42.849 -43.678,41.837C-41.695,38.793 -40.281,35.07 -38.028,32.058C-37.383,30.569 -36.179,29.535 -35.204,27.93C-34.467,26.715 -33.036,24.616 -33.466,22.932C-33.982,20.902 -37.2,21.343 -40.637,21.411C-47.097,21.538 -50.881,20.998 -57.585,20.976C-61.143,20.964 -65.001,21.314 -66.711,19.455C-66.896,19.256 -66.975,19.026 -67.146,18.803C-67.805,17.953 -68.656,16.745 -68.885,14.457C-69.06,12.711 -68.773,10.204 -68.667,7.938C-68.366,1.461 -68.584,-0.467 -62.584,-1.189C-55.607,-2.027 -47.47,-0.971 -39.767,-0.971L-28.251,-0.971C-21.31,-0.971 -14.731,-0.605 -8.259,-0.537C-5.262,-0.505 -2.039,-1.096 0.65,0.332C1.73,1.214 1.963,3.179 1.955,4.896C1.936,8.843 0.771,10.641 -1.088,13.588C-1.897,14.874 -2.685,16.309 -3.478,17.499C-5.212,20.103 -6.684,23.075 -8.041,25.539C-9.511,28.207 -11.115,30.885 -12.604,33.579C-13.354,34.934 -14.365,36.007 -15.212,37.273C-16.107,38.612 -16.612,40.139 -17.386,41.402C-18.156,42.665 -19.188,43.859 -19.992,45.097C-22.459,48.885 -24.924,52.157 -27.381,56.613C-28.727,59.055 -30.166,61.667 -31.944,64.654C-33.281,66.899 -35.943,71.421 -34.552,73.563C-33.575,75.065 -30.563,74.44 -27.815,74.649C-23.207,75.001 -13.395,75.355 -6.954,75.084C-3.847,74.953 -1.177,74.465 0.217,75.736C2.201,77.549 0.855,81.73 0.868,83.776C0.875,84.809 1.252,85.913 1.303,87.035C1.459,90.444 1.198,93.772 0,96.162" style="fill:rgb(35,31,32);"/>
                </g>
                <g transform="matrix(1,0,0,1,98.6299,301.322)">
                    <path d="M0,-43.644C-0.637,-43.52 -0.653,-42.797 -1.521,-42.774C-2.434,-40.599 -3.511,-38.109 -4.128,-35.386C-4.683,-32.943 -5.163,-30.36 -5.65,-27.781C-6.698,-22.227 -8.752,-16.621 -6.084,-12.135C-4.784,-11.381 -2.921,-10.361 -0.435,-10.179C2.422,-9.97 6.045,-10.391 7.388,-11.049C10.281,-12.465 10.018,-14.819 9.562,-18.22C9.372,-19.624 9.42,-20.938 9.126,-22.131C8.515,-24.62 7.462,-27.608 6.953,-29.302C6.854,-29.633 7.024,-30.048 6.953,-30.388C6.119,-34.406 4.324,-38.408 3.694,-42.341C2.415,-42.606 1.477,-43.929 0,-43.644M-5.867,11.986C-7.548,13.229 -9.615,12.794 -10.865,13.942C-11.868,14.862 -12.419,15.198 -13.039,16.548C-13.403,17.344 -13.465,17.615 -13.907,18.722C-14.027,19.021 -14.486,19.35 -14.56,19.592C-15.208,21.734 -14.945,24.155 -16.08,25.893C-16.37,26.336 -17.084,26.43 -17.166,26.979C-18.295,27.359 -20.048,27.516 -22.165,27.414C-22.438,27.402 -23.726,27.702 -23.251,26.979C-24.373,27.693 -25.727,27.4 -26.728,27.414C-27.686,27.428 -28.771,27.757 -29.553,27.414C-30.187,27.136 -31.197,27.405 -33.029,27.414C-34.066,27.419 -34.938,27.47 -36.072,27.196C-36.907,27.092 -35.648,25.955 -36.941,26.111C-37.899,26.271 -37.832,25.407 -38.462,25.241C-40.145,22.489 -38.531,19.686 -38.028,15.898C-37.687,13.329 -37.467,11.008 -36.941,8.509C-36.797,7.828 -36.403,7.192 -36.29,6.554C-35.609,2.727 -35.761,-0.826 -34.769,-4.094C-34.479,-5.047 -33.748,-5.791 -33.463,-6.702C-32.333,-10.336 -32.563,-14.575 -31.725,-18.653C-31.404,-20.22 -30.757,-21.778 -30.422,-23.435C-30.124,-24.91 -30.233,-26.522 -29.553,-27.999C-29.096,-28.991 -28.448,-31.642 -28.031,-33.214C-27.807,-34.064 -27.826,-34.924 -27.597,-35.821C-27.399,-36.599 -26.868,-37.274 -26.728,-37.994C-26.597,-38.673 -26.827,-39.44 -26.728,-40.167C-26.431,-42.333 -25.545,-44.422 -24.989,-46.468C-24.694,-47.554 -24.646,-48.682 -24.338,-49.729C-24.048,-50.709 -23.449,-51.658 -23.251,-52.554C-22.75,-54.811 -23.02,-57.076 -22.165,-59.072C-21.701,-60.153 -21.336,-62.605 -21.078,-64.505C-19.976,-66.225 -19.941,-67.43 -18.688,-68.634C-15.888,-71.326 -8.765,-71.458 -4.998,-71.458C-1.541,-71.458 2.157,-71.241 6.302,-71.241C9.91,-71.241 15.098,-71.509 17.384,-69.937C17.825,-69.635 18.1,-69.019 18.688,-68.416C19.758,-67.317 20.436,-67.057 21.078,-65.591C21.961,-63.577 22.315,-60.832 23.25,-58.203C23.555,-57.352 23.917,-56.676 24.338,-55.596C26.115,-51.033 27.101,-44.717 28.683,-39.732C29.542,-37.027 30.301,-34.247 30.856,-30.605C31.132,-28.804 31.837,-27.134 32.161,-25.608C32.589,-23.585 32.52,-21.482 32.813,-19.523C33.267,-16.487 34.807,-13.824 35.42,-11.267C35.594,-10.538 35.497,-9.607 35.637,-8.875C35.924,-7.377 36.724,-4.923 37.159,-3.226C37.836,-0.571 38.029,2.238 38.68,4.816C38.993,6.056 39.599,7.482 39.983,9.16C40.492,11.378 40.899,13.182 41.504,15.898C42.152,18.801 43.373,23.269 41.287,25.675C41.177,25.803 40.497,26.369 40.201,26.545C40.08,26.617 39.638,26.443 39.548,26.545C39.506,26.595 39.603,26.958 39.548,26.979C37.44,27.865 29.245,27.766 24.989,27.414C24.45,27.37 24.489,27.014 24.338,26.979C24.218,26.953 22.648,27.167 22.165,26.979C20.119,26.19 19.663,24.945 18.906,23.069C18.752,22.689 18.372,22.395 18.253,21.981C18.115,21.501 18.234,20.96 18.036,20.46C17.821,19.916 17.454,19.375 17.167,18.722C16.563,17.352 15.367,14.001 14.559,13.29C12.073,11.1 2.808,11.381 -2.174,11.769C-3.417,11.866 -4.817,12.65 -5.867,11.986" style="fill:rgb(35,31,32);"/>
                </g>
                <g transform="matrix(1,0,0,1,265.299,308.22)">
                    <path d="M0,-27.942C-1.288,-29.369 -2.782,-30.267 -4.563,-31.203C-6.43,-32.183 -7.182,-33.109 -9.778,-32.724C-10.216,-32.658 -10.575,-32.229 -11.083,-32.071C-11.785,-31.852 -12.742,-31.903 -13.473,-31.636C-13.719,-31.547 -14.097,-31.086 -14.342,-30.985C-14.871,-30.766 -15.511,-30.846 -15.645,-30.768C-15.792,-30.681 -16.14,-29.972 -16.515,-29.68C-17.408,-28.989 -17.642,-29.259 -17.818,-28.594C-17.894,-28.313 -18.165,-28.536 -18.253,-28.377C-20.362,-24.575 -17.923,-22.609 -14.342,-22.292C-9.16,-21.834 -4.058,-22.062 0.217,-22.727C1.541,-24.246 0.851,-26.407 0,-27.942M21.513,16.387C20.409,17.257 19.196,17.807 17.818,18.559C16.764,19.139 15.709,19.184 14.342,19.647C13.89,19.8 13.748,20.148 13.256,20.298C10.618,21.102 7.575,21.722 4.129,22.037C1.44,22.282 -3.436,22.262 -6.518,22.037C-12.983,21.568 -18.771,20.544 -23.686,18.127C-27.677,16.16 -31.034,14.149 -33.898,10.52C-34.977,9.154 -35.891,7.798 -36.941,6.174C-37.386,5.486 -38.41,4.687 -38.897,3.783C-39.834,2.049 -40.301,-0.539 -41.069,-2.518C-41.575,-3.82 -42.41,-4.705 -42.59,-5.994C-43.498,-12.462 -42.191,-22.253 -40.417,-27.509C-39.239,-31 -37.881,-33.475 -36.072,-36.2C-35.345,-37.293 -34.812,-38.573 -34.116,-39.46C-33.03,-40.842 -30.894,-42.512 -29.336,-43.806C-28.478,-44.517 -27.721,-45.15 -26.728,-45.762C-24.996,-46.823 -23.799,-48.024 -21.948,-47.501C-21.681,-48.841 -20.177,-48.602 -18.688,-49.021C-18.16,-49.17 -17.768,-49.598 -17.383,-49.672C-15.818,-49.974 -14.141,-49.812 -12.821,-49.889C-7.173,-50.224 -2.498,-49.797 1.956,-48.586C4.994,-47.76 6.82,-46.958 9.126,-45.327C12.849,-42.694 15.938,-39.139 18.688,-35.113C19.033,-34.609 19.369,-34.2 19.774,-33.592C20.697,-32.209 21.787,-28.782 22.383,-26.639C23.504,-22.605 24.491,-18.803 23.903,-13.383C23.734,-11.825 22.775,-8.774 21.513,-7.733C20.368,-6.788 18.591,-6.551 16.732,-5.994C10.679,-6.609 4.451,-6.469 -2.39,-6.647C-4.179,-6.693 -8.33,-6.474 -11.951,-6.647C-14.471,-6.768 -16.46,-7.272 -17.818,-5.777C-20.939,-2.346 -12.598,1.254 -9.778,2.045C-7.263,2.75 -3.588,2.607 0.217,2.697C5.976,2.836 9.267,1.879 13.908,0.523C17.36,-0.484 21.095,-1.484 22.6,2.045C23.677,4.574 22.904,14.093 21.513,16.387" style="fill:rgb(35,31,32);"/>
                </g>
                <g transform="matrix(1,0,0,1,186.637,398.972)">
                    <path d="M0,28.853C1.477,27.985 2.408,27.357 3.478,26.247C4.454,25.231 5.527,24.258 5.867,22.987C5.942,22.705 6.213,22.929 6.302,22.77C6.875,21.741 6.826,20.812 7.171,19.51C7.541,18.11 7.97,17.098 7.822,15.381C7.486,11.464 6.583,9.373 4.781,6.69C2.656,3.526 -0.247,1.541 -3.911,0.387C-4.863,0.088 -5.931,-0.177 -6.737,-0.264C-15.899,-1.263 -24.461,4.653 -23.685,16.467C-23.413,20.616 -20.854,23.086 -19.123,26.247C-18.015,26.517 -17.328,27.379 -16.514,27.985C-15.626,28.646 -14.587,29.047 -13.908,29.941C-11.799,30.384 -9.496,31.165 -6.954,31.026C-4.997,30.92 -3.287,29.941 -1.738,30.158C-1.428,29.435 -0.623,29.221 0,28.853M28.249,3.646C28.518,8.516 29.88,12.366 29.77,17.12C29.725,19.078 29.089,21.296 28.684,23.42C27.744,28.338 26.465,32.129 23.686,35.374C22.733,36.484 21.824,38.056 20.643,39.285C19.098,40.894 18.121,41.994 16.297,43.197C15.991,43.398 15.501,43.206 15.211,43.413C14.981,43.579 15.035,44.107 14.776,44.282C13.719,44.995 12.422,45.315 11.734,46.456C10.137,46.891 9.625,47.2 7.605,47.759C7.111,47.895 5.27,48.909 4.563,49.062C3.698,49.253 2.648,49.094 1.738,49.28C1.032,49.424 0.406,49.836 -0.217,49.932C-1.347,50.104 -2.691,50.041 -3.911,50.15C-7.478,50.462 -12.812,50.882 -17.602,49.932C-21.39,49.181 -25.508,47.836 -28.25,46.238C-31.501,44.342 -34.991,42.05 -36.941,39.067C-37.247,38.6 -37.59,38.109 -37.81,37.546C-39.969,34.924 -41.458,31.633 -43.677,29.071C-45.157,25.42 -46.085,21.751 -46.72,16.902C-47.009,14.694 -47.345,9.822 -46.72,6.254C-46.616,5.661 -46.078,5.207 -45.85,4.516C-45.611,3.793 -45.641,3.009 -45.415,2.343C-43.731,-2.649 -40.943,-6.251 -37.594,-10.26C-36.796,-11.213 -36.209,-12.365 -35.42,-13.085C-35.226,-13.263 -34.739,-13.12 -34.55,-13.302C-34.405,-13.444 -34.497,-13.829 -34.333,-13.955C-32.99,-14.979 -30.971,-15.913 -29.118,-16.997C-28.636,-17.279 -28.295,-17.621 -27.814,-17.867C-27.379,-18.087 -26.941,-18.319 -26.511,-18.517C-24.341,-19.52 -20.486,-21.023 -17.602,-21.343C-15.963,-21.525 -14.337,-21.226 -12.82,-21.343C-10.744,-21.501 -7.744,-22.029 -4.781,-21.778C-4.121,-21.721 -3.538,-21.422 -2.825,-21.343C2.448,-20.749 6.897,-19.021 10.865,-16.561C12.505,-15.546 14.005,-14.268 15.646,-13.085C18.834,-10.788 21.547,-8.444 23.902,-5.263C25.749,-2.769 26.871,0.714 28.249,3.646" style="fill:rgb(35,31,32);"/>
                </g>
                <g transform="matrix(1,0,0,1,312.454,428.095)">
                    <path d="M0,-28.736C-2.482,-28.4 -5.387,-26.965 -6.736,-25.91C-7.243,-25.514 -7.965,-25.12 -8.257,-24.825C-9.22,-23.852 -9.519,-22.158 -11.083,-21.565C-11.06,-18.599 -12.676,-16.23 -12.386,-12.656C-12.265,-11.157 -11.079,-8.087 -10.647,-7.223C-10.192,-6.313 -9.711,-5.335 -9.344,-4.833C-9.209,-4.649 -9.058,-4.387 -8.909,-4.18C-8.112,-3.07 -7.64,-2.974 -6.736,-2.224C-6.29,-1.855 -6.043,-1.218 -5.65,-0.921C-5.291,-0.65 -4.588,-0.565 -4.129,-0.27C-2.483,0.79 -0.254,1.893 2.391,2.12C4.909,2.338 6.435,1.749 8.475,1.252C12.388,0.299 14.573,-1.768 16.515,-4.615C17.837,-6.555 18.887,-8.815 19.123,-10.918C19.555,-14.771 18.106,-18.994 16.732,-20.913C15.22,-23.024 13.419,-25.881 10.865,-26.563C10.605,-26.632 10.784,-26.932 10.647,-26.998C9.029,-27.774 6.853,-27.744 4.998,-28.954C5,-29.074 4.822,-29.2 4.781,-28.954C3.532,-28.43 1.329,-28.915 0,-28.736M22.599,17.115C22.111,17.206 22.593,18.268 22.165,18.418C17.357,20.357 11.409,21.46 5.433,21.895C3.784,22.015 1.891,22.008 0.217,21.895C-4.34,21.589 -9.182,20.423 -12.821,19.071C-14.536,18.432 -16.198,17.81 -17.383,17.115C-19.611,15.812 -21.521,13.843 -23.686,12.768C-24.638,11.766 -25.271,10.443 -26.51,9.727C-28.24,5.734 -31.156,2.927 -32.813,-1.138C-34.395,-4.815 -36.033,-9.829 -36.072,-15.046C-36.093,-18.014 -35.462,-20.943 -35.637,-23.739C-34.408,-25.702 -34.066,-28.029 -33.03,-30.257C-32.901,-30.533 -32.521,-30.834 -32.377,-31.126C-31.343,-33.233 -29.858,-35.286 -28.249,-37.211C-25.883,-40.038 -24.482,-41.804 -21.513,-43.946C-20.821,-44.447 -20.1,-45.028 -19.339,-45.468C-19.219,-45.538 -18.777,-45.366 -18.688,-45.468C-18.199,-46.024 -16.412,-46.975 -15.428,-47.423C-14.313,-47.934 -13.163,-48.565 -12.168,-48.945C-9.311,-50.035 -6.003,-50.052 -2.607,-50.249C1.919,-50.51 7.61,-50.751 11.952,-49.814C13.114,-49.562 14.297,-48.894 15.428,-48.51C18.881,-47.34 21.842,-45.636 24.989,-43.946C25.629,-42.427 27.479,-41.737 28.684,-40.687C28.792,-40.593 28.577,-40.13 28.684,-40.036C28.852,-39.887 29.462,-39.863 29.771,-39.601C30.925,-38.62 32.144,-37.534 33.248,-36.342C35.422,-33.99 38.063,-30.428 39.331,-26.563C39.96,-24.644 40.145,-23.657 40.418,-21.131C40.755,-18.014 41.913,-14.221 41.722,-10.7C41.593,-8.322 40.455,-6.259 40.418,-3.529C38.215,4.223 34.184,9.887 28.466,14.289C28.259,14.45 28.011,14.549 27.815,14.724C27.028,15.43 25.587,16.031 24.772,17.115C24.11,17.104 23.667,17.313 23.468,17.768C22.618,18.111 23.019,17.203 22.599,17.115" style="fill:rgb(35,31,32);"/>
                </g>
                <g transform="matrix(1,0,0,1,386.119,434.216)">
                    <path d="M0,-28.122C-0.264,-27.466 -0.468,-25.135 -0.217,-23.992C-0.135,-23.619 0.439,-23.25 0.652,-22.689C0.934,-21.943 0.82,-21.264 1.087,-20.733C1.479,-19.952 2.442,-19.05 2.825,-18.777C5.078,-17.167 7.057,-15.8 10.648,-15.734C11.991,-15.711 13.809,-15.684 15.211,-15.951C16.454,-16.19 19.446,-17.741 20.208,-18.343C20.399,-18.493 21.51,-19.643 21.514,-19.645C24.78,-23.876 22.615,-31.57 19.123,-33.987C17.02,-35.443 12.537,-36.094 10.648,-35.943C4.443,-35.452 1.685,-32.292 0,-28.122M44.33,12.949C43.493,13.477 43.919,14.585 43.244,15.339C43.021,15.588 42.79,15.434 42.591,15.774C42.024,16.751 41.797,17.97 41.071,18.816C40.579,19.39 39.546,20.053 38.68,20.771C34.013,24.65 25.792,27.217 17.602,27.726C14.537,27.915 11.361,27.751 8.258,27.726C5.137,27.701 1.939,28.043 -0.869,27.726C-3.291,27.452 -7.65,25.919 -10.431,24.9C-11.5,24.51 -12.789,24.451 -13.69,24.032C-13.783,23.987 -13.929,23.49 -14.125,23.379C-15.315,22.698 -17.667,21.464 -18.253,20.338C-19.879,17.211 -19.073,13.455 -19.123,9.691C-19.144,8.049 -19.248,4.76 -18.037,3.606C-15.831,1.504 -10.279,3.782 -7.822,4.691C-6.326,5.244 -4.88,5.9 -3.478,6.43C-2.384,6.841 -1.423,6.954 0,7.517C1.902,8.269 5.735,8.561 8.475,8.82C12.194,9.172 16.351,9.08 18.905,7.952C19.85,7.534 20.577,7.285 21.079,6.864C22.06,6.044 24.833,1.711 22.382,0.346C20.815,-0.527 17.395,1.868 15.864,2.084C13.808,2.372 11.483,2.102 9.344,2.084C5.371,2.049 2.156,2.236 -1.086,1.432C-1.59,1.307 -2.077,0.917 -2.607,0.781C-5.132,0.125 -6.595,-0.704 -8.692,-2.045C-11.289,-3.705 -12.933,-4.422 -14.776,-6.607C-15.334,-7.268 -15.808,-8.125 -16.297,-8.781C-17.434,-10.304 -18.708,-11.698 -19.34,-12.91C-20,-14.175 -20.3,-15.934 -20.861,-17.907C-22.507,-23.704 -21.989,-31.273 -20.209,-38.334C-16.535,-45.866 -12.014,-51.889 -4.563,-54.632C-1.434,-55.783 5.107,-56.165 9.561,-56.152C12.273,-56.145 15.805,-55.843 18.47,-55.066C19.867,-54.658 21.781,-52.842 23.252,-52.893C24.842,-52.948 25.406,-54.758 27.164,-55.066C29.402,-55.459 32.832,-54.61 35.855,-54.632C38.883,-54.653 41.495,-55.049 43.026,-53.762C45.069,-52.047 44.559,-44.074 44.547,-40.508C44.513,-30.212 44.611,-20.762 44.764,-11.389C44.895,-3.443 44.212,3.467 44.33,12.949" style="fill:rgb(35,31,32);"/>
                </g>
            </g>
        </g>
    </g>
</svg>
