<?xml version="1.0" encoding="UTF-8" standalone="no"?>
<!DOCTYPE svg PUBLIC "-//W3C//DTD SVG 1.1//EN" "http://www.w3.org/Graphics/SVG/1.1/DTD/svg11.dtd">
<svg width="100%" height="100%" viewBox="0 0 96 39" version="1.1" xmlns="http://www.w3.org/2000/svg" xmlns:xlink="http://www.w3.org/1999/xlink" xml:space="preserve" xmlns:serif="http://www.serif.com/" style="fill-rule:evenodd;clip-rule:evenodd;stroke-linejoin:round;stroke-miterlimit:2;">
    <g transform="matrix(1,0,0,1,-1,-1)">
        <path d="M97,40C94,40 94,37 91,37C88,37 88,40 85,40C82,40 82,37 79,37C76,37 76,40 73,40C70,40 70,37 67,37C64,37 64,40 61,40C58,40 58,37 55,37C52,37 52,40 49,40C46,40 46,37 43,37C40,37 40,40 37,40C34,40 34,37 31,37C28,37 28,40 25,40C22,40 22,37 19,37C16,37 16,40 13,40C10,40 10,37 7,37C4,37 4,40 1,40L1,4C4,4 4,1 7,1C10,1 10,4 13,4C16,4 16,1 19,1C22,1 22,4 25,4C28,4 28,1 31,1C34,1 34,4 37,4C40,4 40,1 43,1C46,1 46,4 49,4C52,4 52,1 55,1C58,1 58,4 61,4C64,4 64,1 67,1C70,1 70,4 73,4C76,4 76,1 79,1C82,1 82,4 85,4C88,4 88,1 91,1C94,1 94,4 97,4L97,40Z" style="fill-rule:nonzero;"/>
    </g>
</svg>
